<?xml version="1.0" encoding="utf-8"?>
<svg xmlns="http://www.w3.org/2000/svg" id="Layer_1" data-name="Layer 1" viewBox="0 0 300 80">
  <defs>
    <style>
      .cls-1, .cls-2 {
        fill: #fff;
      }

      .cls-2 {
        fill-rule: evenodd;
      }
    </style>
  </defs>
  <g id="Ebene_1" data-name="Ebene 1">
    <g>
      <polyline class="cls-1" points="220.09 58.19 221.05 58.19 221.05 51.24 219.45 51.24 217.48 56.97 217.46 56.97 215.46 51.24 213.75 51.24 213.75 58.19 214.7 58.19 214.7 51.94 214.73 51.94 216.94 58.19 217.85 58.19 220.07 51.94 220.09 51.94 220.09 58.19"/>
      <path class="cls-2" d="M226.26,52.22h.87v-.98h-.87v.98ZM224.45,52.22h.87v-.98h-.87v.98ZM226.97,55.84c0,.11-.01.69-.18,1.13-.19.5-.7.69-1.08.69-.87,0-1.07-.62-1.07-1.45v-2.86h-.91v3.23c0,.97.58,1.74,1.59,1.74.67,0,1.29-.25,1.65-.86h.02v.71h.9v-4.83h-.91v2.48h0Z"/>
      <path class="cls-1" d="M231.42,53.36h-.9v4.83h.91v-2.62c0-.94.25-1.16.39-1.29.39-.39.88-.36.88-.36.77,0,1.1.43,1.1,1.23v3.04h.91v-3.34c0-1.55-1.49-1.63-1.82-1.63-.48,0-1.16.25-1.46.86h-.02v-.71"/>
      <path class="cls-1" d="M240.92,54.9c-.05-1.05-.82-1.69-1.84-1.69-1.53,0-2.24,1.18-2.24,2.6s.62,2.52,2.16,2.52c1.07,0,1.88-.66,1.95-1.75h-.91c-.05.69-.42,1.09-1.03,1.09-.87,0-1.21-.76-1.21-1.89s.33-1.89,1.21-1.89c.65,0,.94.42.99,1.03h.91"/>
      <path class="cls-1" d="M243.99,58.19v-2.48c0-.27-.06-.62.15-1.12.18-.4.73-.68,1.09-.67.86.02,1.08.57,1.08,1.41v2.86h.91v-3.27c0-.87-.4-1.7-1.65-1.7-.7,0-1.22.25-1.56.79h-.02v-2.76h-.91v6.94h.91"/>
      <path class="cls-2" d="M253.86,55.95v-.45c0-1.34-.68-2.25-2.12-2.28-1.53,0-2.24,1.18-2.24,2.6s.61,2.52,2.16,2.52c1.16,0,2-.55,2.14-1.64h-.96c-.11.7-.46.98-1.17.98-.93,0-1.28-.87-1.21-1.72h3.4M250.46,55.31c0-.79.45-1.43,1.21-1.43.88,0,1.25.62,1.23,1.43h-2.44Z"/>
      <path class="cls-1" d="M257.04,53.36h-.9v4.83h.91v-2.62c0-.94.25-1.16.39-1.29.39-.39.88-.36.88-.36.77,0,1.1.43,1.1,1.23v3.04h.91v-3.34c0-1.55-1.49-1.63-1.82-1.63-.48,0-1.16.25-1.46.86h-.02v-.71"/>
      <path class="cls-2" d="M124.05,46.15l1.22-3.27h5.25l1.22,3.27h1.71l-4.57-12.57h-1.68l-4.77,12.57h1.61M127.97,35.31l2.05,6.07h-4.22l2.16-6.07Z"/>
      <path class="cls-1" d="M143.01,36.82c-.17-2.24-1.8-3.43-3.98-3.5-3.79-.12-5.01,3.46-5.01,6.54,0,3.52,1.33,6.54,4.67,6.54,2.21,0,4.12-1.39,4.28-3.5h-1.64c-.19,1.34-1.29,2-2.49,2-2.46,0-3.17-2.45-3.17-5.05,0-2.21.52-5.05,3.3-5.05,1.16,0,2.32.8,2.4,2h1.64"/>
      <path class="cls-1" d="M152.99,36.82c-.17-2.24-1.8-3.43-3.98-3.5-3.79-.12-5.01,3.46-5.01,6.54,0,3.52,1.33,6.54,4.67,6.54,2.21,0,4.12-1.39,4.28-3.5h-1.64c-.19,1.34-1.29,2-2.49,2-2.46,0-3.17-2.45-3.17-5.05,0-2.21.52-5.05,3.31-5.05,1.16,0,2.32.8,2.4,2h1.64"/>
      <path class="cls-1" d="M163.75,33.58h-1.57v8.01c-.05,2.16-1.21,3.33-2.99,3.33s-2.95-1.17-2.99-3.33v-8.01h-1.56v7.59c-.05,3.24,1.49,5.24,4.56,5.24s4.61-2,4.56-5.24v-7.59"/>
      <polyline class="cls-1" points="176.59 46.15 178.16 46.15 178.16 33.58 175.55 33.58 172.35 43.94 172.32 43.94 169.06 33.58 166.25 33.58 166.25 46.15 167.82 46.15 167.82 34.84 167.85 34.84 171.47 46.15 172.94 46.15 176.57 34.84 176.59 34.84 176.59 46.15"/>
      <path class="cls-1" d="M189.78,33.58h-1.57v8.01c-.05,2.16-1.21,3.33-2.99,3.33s-2.95-1.17-2.99-3.33v-8.01h-1.56v7.59c-.05,3.24,1.49,5.24,4.56,5.24s4.61-2,4.56-5.24v-7.59"/>
      <polyline class="cls-1" points="199.13 46.15 199.13 44.65 193.87 44.65 193.87 33.58 192.31 33.58 192.31 46.15 199.13 46.15"/>
      <path class="cls-2" d="M201.62,46.15l1.22-3.27h5.25l1.22,3.27h1.71l-4.57-12.57h-1.68l-4.77,12.57h1.61M205.54,35.31l2.05,6.07h-4.22l2.16-6.07Z"/>
      <polyline class="cls-1" points="213.55 46.15 215.12 46.15 215.12 35.08 218.91 35.08 218.91 33.58 209.76 33.58 209.76 35.08 213.55 35.08 213.55 46.15"/>
      <path class="cls-2" d="M219.56,39.87c0,3.67,1.64,6.54,5.17,6.54s5.17-2.87,5.17-6.54-1.64-6.54-5.17-6.54-5.17,2.87-5.17,6.54M221.21,39.87c0-2.68.66-5.05,3.52-5.05s3.52,2.37,3.52,5.05-.66,5.05-3.52,5.05-3.52-2.44-3.52-5.05Z"/>
      <path class="cls-2" d="M233.24,35.08h2.58c1.74.08,2.13.96,2.13,1.95s-.39,1.86-2.13,1.95h-2.58v-3.9M235.46,40.47c.62.05,1.25,0,1.71.57.52.63.52,1.65.64,2.79.08.75.27,1.56.41,2.32h1.68c-.41-1.18-.53-2.52-.7-3.78-.18-1.41-.36-2.21-1.72-2.58v-.03c1.31-.35,2.13-1.51,2.13-3.03,0-2.49-1.96-3.15-3.85-3.15h-4.05v12.57h1.57v-5.68h2.19Z"/>
      <polyline class="cls-1" points="248.74 46.15 248.74 44.65 243.08 44.65 243.08 40.5 248.34 40.5 248.34 38.99 243.08 38.99 243.08 35.08 248.61 35.08 248.61 33.58 241.52 33.58 241.52 46.15 248.74 46.15"/>
      <polyline class="cls-1" points="258.68 33.58 258.68 43.97 258.65 43.97 253.14 33.58 250.99 33.58 250.99 46.15 252.38 46.15 252.38 35.48 252.42 35.48 258.13 46.15 260.08 46.15 260.08 33.58 258.68 33.58"/>
      <path class="cls-2" d="M46.14,40.92l1.1-4.74h.03l.99,4.74h-2.12M40.12,46h4.77l.5-2.02h3.6l.49,2.02h5.15l-4.04-12.57h-6.45l-4.02,12.57Z"/>
      <rect class="cls-1" x="55.2" y="33.44" width="4.98" height="12.57"/>
      <polyline class="cls-1" points="74.34 46 78.55 46 78.55 33.44 71.64 33.44 70.26 40.92 70.23 40.92 68.85 33.44 61.95 33.44 61.95 46 66.16 46 66.16 37.02 66.19 37.02 67.97 46 72.53 46 74.3 37.02 74.34 37.02 74.34 46"/>
      <polygon class="cls-1" points="99.51 54.89 102.45 57.85 101.25 59.05 82.13 40 91.99 30.18 91.99 47.52 94.9 50.28 95.26 49.89 92.52 47.3 92.52 30.06 95.21 32.69 113.05 32.7 113.79 33.44 95.84 33.44 95.85 33.44 95.82 33.44 95.82 51.2 98.58 53.95 98.95 53.58 96.35 50.99 96.35 33.93 98.9 36.39 116.75 36.39 117.42 37.06 99.48 37.06 99.55 37.13 99.52 37.13 99.51 54.78 99.51 54.89"/>
      <polygon class="cls-1" points="120.35 40.03 102.83 57.48 100.04 54.67 100.05 37.6 102.63 40.03 120.35 40.03"/>
      <polygon class="cls-1" points="110.09 29.75 92.42 29.75 101.25 20.95 110.09 29.75"/>
    </g>
  </g>
</svg>