<?xml version="1.0" encoding="utf-8"?>
<svg xmlns="http://www.w3.org/2000/svg" id="Layer_1" data-name="Layer 1" viewBox="0 0 300 80">
  <defs>
    <style>
      .cls-1 {
        fill: #fff;
      }
    </style>
  </defs>
  <g id="Ebene_1" data-name="Ebene 1">
    <g>
      <g>
        <g>
          <path class="cls-1" d="M40.12,33.37h5.06v12.77h-5.06v-12.77Z"/>
          <path class="cls-1" d="M49.46,33.37h7.59c1.37,0,2.4.28,3.08.84.69.56,1.02,1.38,1.02,2.47,0,.69-.18,1.26-.54,1.74-.36.48-.98.82-1.87,1.04v.03c.92.13,1.61.48,2.06,1.04s.68,1.21.68,1.95c0,1.12-.43,2.01-1.29,2.67-.86.66-2.06.99-3.62.99h-7.13v-12.77h0ZM54.2,36.09v2.42h.67c.55,0,.95-.11,1.18-.33.24-.23.35-.54.35-.94s-.13-.71-.39-.88c-.26-.18-.65-.27-1.17-.27h-.66,0ZM54.2,43.42h.71c.61,0,1.05-.11,1.32-.32.27-.21.41-.55.41-1.02,0-.76-.59-1.15-1.79-1.15h-.66v2.5h0Z"/>
          <path class="cls-1" d="M72.55,41.44h-2.16v4.71h-5.06v-12.77h5.06v4.31h2.16v-4.31h5.06v12.77h-5.06s0-4.71,0-4.71Z"/>
        </g>
        <g>
          <path class="cls-1" d="M127.22,32.95h1.7l4.65,12.8h-1.74l-1.24-3.34-5.33-.02-1.24,3.32h-1.64l4.84-12.76h0ZM125.77,40.97l4.35.02-2.12-6.27-2.23,6.26h0Z"/>
          <path class="cls-1" d="M141.25,36.46v-.03c-.03-.22-.08-.42-.14-.64s-.18-.44-.35-.69c-.17-.24-.42-.45-.75-.61-.33-.16-.74-.25-1.24-.25-.66,0-1.21.16-1.64.49-.44.33-.77.75-1,1.28s-.4,1.08-.49,1.68-.14,1.2-.14,1.81c0,.66.05,1.29.15,1.87.1.58.27,1.12.51,1.59.24.48.57.85,1,1.14s.96.43,1.59.43c.37,0,.72-.06,1.04-.18.32-.12.59-.31.83-.58.18-.21.31-.43.39-.65.08-.22.14-.45.17-.69h1.75c-.05.61-.22,1.13-.48,1.59-.27.45-.6.83-1,1.12s-.85.51-1.33.64c-.48.14-.98.2-1.49.2-.96,0-1.76-.22-2.4-.63-.64-.41-1.14-.95-1.49-1.6-.35-.65-.59-1.34-.73-2.06s-.21-1.45-.21-2.17.08-1.52.23-2.28.42-1.48.8-2.16c.38-.67.89-1.21,1.56-1.63.66-.42,1.48-.62,2.45-.62.45,0,.89.06,1.35.18.46.11.89.31,1.29.59s.74.66,1.01,1.14.42,1.06.47,1.74h-1.72Z"/>
          <path class="cls-1" d="M151.38,36.49v-.03c-.03-.22-.08-.42-.14-.64s-.18-.44-.35-.69c-.17-.24-.42-.45-.75-.61-.33-.16-.74-.25-1.24-.25-.66,0-1.21.16-1.64.49-.44.33-.77.75-1,1.28s-.4,1.08-.49,1.68c-.09.59-.14,1.2-.14,1.81,0,.66.05,1.29.15,1.87.1.58.27,1.12.51,1.59.24.47.57.85,1,1.14s.96.43,1.59.43c.37,0,.72-.06,1.04-.18.32-.12.59-.31.83-.58.18-.21.31-.43.39-.65s.14-.45.16-.69h1.75c-.05.61-.22,1.13-.48,1.59-.27.45-.6.83-1,1.12s-.85.51-1.33.64-.98.2-1.49.2c-.96,0-1.76-.22-2.4-.63-.64-.41-1.14-.95-1.49-1.6-.35-.65-.59-1.34-.73-2.06s-.21-1.45-.21-2.17.08-1.52.23-2.28.42-1.48.8-2.16c.38-.67.89-1.22,1.56-1.63.66-.42,1.48-.62,2.45-.62.45,0,.89.06,1.35.18.46.11.89.31,1.29.59s.74.66,1.01,1.14c.27.48.42,1.06.47,1.74h-1.72Z"/>
          <path class="cls-1" d="M156.25,33.06v7.91c0,.61.05,1.09.14,1.43s.22.63.37.87c.33.49.72.82,1.19,1s.94.27,1.44.27c.72,0,1.3-.13,1.74-.39.44-.27.75-.59.95-1,.2-.4.32-.78.36-1.13.05-.35.06-.72.06-1.1v-7.84h1.55v7.88c0,.25,0,.49-.02.72s-.05.5-.11.8c-.06.3-.15.61-.28.93-.12.32-.3.63-.53.93-.27.36-.57.67-.9.91-.33.24-.67.42-1.01.54-.34.12-.66.2-.96.24s-.58.06-.84.06c-.31,0-.63-.03-.99-.09-.35-.06-.71-.16-1.09-.31s-.74-.36-1.08-.63c-.35-.27-.65-.61-.9-1.01-.22-.35-.38-.75-.49-1.21-.12-.46-.18-1.14-.18-2.01v-7.79h1.6Z"/>
          <path class="cls-1" d="M166.51,33.1h2.82s3.25,10.55,3.25,10.55l3.33-10.51h2.63v12.79h-1.56v-11.51l-3.78,11.49h-1.51l-3.63-11.45v11.43h-1.55v-12.78h0Z"/>
          <path class="cls-1" d="M182.69,33.16v7.91c0,.61.05,1.09.14,1.43s.22.63.37.87c.33.49.72.82,1.19,1s.94.27,1.44.27c.72,0,1.3-.13,1.74-.39.44-.27.75-.59.95-1,.2-.4.32-.78.36-1.13s.06-.72.06-1.1v-7.84h1.55v7.88c0,.25,0,.49-.02.72s-.05.5-.11.8c-.06.3-.15.61-.28.93s-.3.63-.53.93c-.27.36-.57.67-.9.91s-.67.42-1.01.54c-.34.12-.66.2-.96.24s-.58.06-.84.06c-.31,0-.63-.03-.99-.09-.35-.06-.71-.16-1.09-.31s-.74-.36-1.08-.63c-.35-.27-.65-.61-.9-1.01-.22-.34-.38-.75-.49-1.21-.12-.46-.18-1.14-.18-2.01v-7.79h1.6Z"/>
          <path class="cls-1" d="M192.99,33.2h1.57v11.21l5.35.02v1.57l-6.92-.02s0-12.77,0-12.77Z"/>
          <path class="cls-1" d="M204.85,33.24h1.7l4.65,12.8h-1.74l-1.24-3.34-5.33-.02-1.24,3.32h-1.64l4.84-12.76h0ZM203.4,41.25l4.35.02-2.12-6.27-2.23,6.26Z"/>
          <path class="cls-1" d="M213.86,46.04v-11.27l-3.86-.02v-1.51l9.29.03v1.51l-3.86-.02v11.27s-1.57,0-1.57,0Z"/>
          <path class="cls-1" d="M219.26,38.49c.05-.42.12-.86.22-1.31s.26-.89.45-1.32c.2-.44.44-.83.74-1.18.29-.34.59-.63.93-.86.33-.23.67-.4,1-.53.33-.12.66-.21.98-.25s.63-.07.93-.07c1.63,0,2.89.58,3.82,1.71.92,1.14,1.38,2.77,1.38,4.9,0,.91-.09,1.77-.27,2.57-.18.8-.48,1.52-.88,2.16s-.96,1.15-1.65,1.52-1.53.55-2.51.55-1.75-.18-2.42-.53-1.21-.83-1.61-1.43-.7-1.3-.88-2.09c-.18-.79-.27-1.65-.27-2.57,0-.42.02-.85.06-1.27h0ZM221.1,41.9c.15.7.42,1.3.79,1.81.31.42.68.73,1.12.91.44.18.92.27,1.43.27.51,0,.98-.08,1.42-.27s.81-.48,1.13-.89c.22-.29.41-.63.55-1.02.14-.39.25-.77.31-1.14.06-.37.11-.72.14-1.06s.04-.65.04-.93c0-.75-.06-1.44-.18-2.06-.12-.61-.32-1.15-.59-1.61-.27-.46-.63-.82-1.08-1.06s-1-.37-1.63-.38c-.7,0-1.29.14-1.77.42s-.86.67-1.13,1.16-.47,1.04-.59,1.65c-.12.61-.18,1.27-.18,1.98,0,.79.08,1.53.23,2.23h0Z"/>
          <path class="cls-1" d="M231.51,33.34l4.11.02c.5,0,.97.04,1.42.11.45.07.86.24,1.23.5.42.29.74.67.96,1.13.21.45.32.95.32,1.48,0,.45-.07.87-.22,1.26s-.34.72-.59,1.01c-.22.25-.44.43-.66.54-.22.12-.45.21-.69.28.57.17.99.42,1.25.78s.42.91.5,1.69l.02.07c.1.92.19,1.65.28,2.2.09.54.23,1.13.42,1.76h-1.7c-.1-.33-.18-.76-.26-1.27-.08-.52-.16-1.13-.23-1.83-.02-.18-.03-.27-.03-.28-.05-.5-.12-.89-.22-1.19-.09-.29-.22-.53-.4-.71s-.41-.31-.71-.39c-.3-.08-.7-.12-1.19-.12h-2v5.76h-1.57v-12.78h-.01ZM233.05,38.84h2.51c.24.01.51,0,.8-.04s.53-.11.71-.23c.19-.12.37-.31.53-.57s.25-.63.25-1.09c0-.48-.08-.87-.25-1.16-.16-.29-.37-.5-.61-.63-.24-.13-.48-.21-.71-.24s-.47-.05-.72-.05h-2.51s0,4,0,4h0Z"/>
          <path class="cls-1" d="M241.47,33.37l7.21.03v1.51l-5.62-.02v3.98l5.35.02v1.48l-5.35-.02v4.25l5.75.02v1.56l-7.34-.03v-12.77Z"/>
          <path class="cls-1" d="M251.01,33.41h2.21l5.65,10.59v-10.56h1.47v12.78h-2.04l-5.84-10.88v10.84h-1.45v-12.78Z"/>
        </g>
        <g>
          <path class="cls-1" d="M221.52,49.97v3.2h3.19s0-3.19,0-3.19h.93v7.46h-.93v-3.37h-3.19s0,3.36,0,3.36h-.93v-7.46s.93,0,.93,0Z"/>
          <path class="cls-1" d="M229.86,57.46c-.06-.22-.08-.48-.08-.78-.1.2-.21.36-.33.49-.12.12-.25.22-.38.29-.13.07-.25.11-.37.13s-.24.03-.35.03c-.52,0-.92-.15-1.21-.43-.29-.29-.44-.66-.44-1.1,0-.27.06-.54.18-.81s.33-.5.64-.71c.22-.14.48-.23.76-.27.29-.05.57-.06.85-.06.1,0,.19,0,.28,0,.09,0,.2.01.35.03,0-.36,0-.62-.02-.77s-.06-.27-.14-.38c-.08-.12-.2-.2-.35-.26s-.31-.08-.45-.08c-.2,0-.37.03-.5.1s-.23.15-.28.24c-.06.1-.1.19-.12.28-.02.09-.03.18-.04.26h-.87v-.03c.02-.19.06-.36.1-.5s.12-.29.23-.44c.16-.2.38-.34.66-.42s.56-.12.85-.12c.37,0,.7.07,1.01.2.31.13.52.32.64.57.07.14.11.27.13.39.02.12.03.25.03.41l-.04,2.48c0,.11,0,.3.02.56.01.27.03.51.06.74h-.79,0ZM229.26,54.91c-.15,0-.32,0-.48.02-.17.01-.35.05-.53.12-.19.07-.35.18-.48.32s-.19.34-.19.59c0,.1.02.19.05.29s.08.2.15.29.17.17.3.23.28.09.47.09c.45,0,.78-.18,1-.55.1-.16.15-.33.17-.5.02-.17.04-.46.05-.86-.15-.02-.32-.03-.5-.03h0Z"/>
          <path class="cls-1" d="M231.92,52.88v-.6s.86,0,.86,0v.84c.06-.1.11-.19.16-.28.06-.09.15-.19.26-.29.11-.11.26-.19.45-.26.18-.07.4-.1.63-.1.14,0,.31.02.48.06s.36.12.55.25c.19.12.35.31.47.54s.19.54.19.92v3.52h-.89v-3.3c0-.2-.02-.37-.05-.51s-.1-.27-.2-.38c-.22-.23-.49-.35-.83-.36-.34,0-.63.13-.87.4-.24.27-.35.65-.35,1.14v2.98h-.87v-4.59h0Z"/>
          <path class="cls-1" d="M237.31,52.9v-.6s.86,0,.86,0v.84c.06-.1.11-.19.16-.28.06-.09.15-.19.26-.29.11-.11.26-.19.45-.26.18-.07.4-.1.63-.1.14,0,.31.02.48.06.18.05.36.12.55.25.19.12.35.31.47.54s.19.54.19.92v3.52h-.89v-3.3c0-.2-.02-.37-.05-.51s-.1-.27-.2-.38c-.22-.24-.49-.35-.83-.36-.34,0-.63.13-.87.4-.24.27-.35.65-.35,1.14v2.98h-.87v-4.59h0Z"/>
          <path class="cls-1" d="M242.45,53.97c.08-.32.22-.62.4-.89.18-.27.43-.49.74-.65s.68-.24,1.12-.24.81.09,1.12.26.54.39.71.66c.17.27.29.57.36.87.07.31.1.62.1.93,0,.8-.2,1.46-.61,1.99s-.99.79-1.75.78c-.74,0-1.31-.25-1.7-.76-.4-.5-.59-1.16-.59-1.95,0-.35.04-.68.12-1h0ZM243.33,55.69c.06.24.14.46.25.65.11.19.26.34.44.45s.39.16.62.17c.18,0,.35-.04.51-.11.17-.07.32-.19.45-.35.14-.16.24-.38.33-.65.08-.27.12-.59.12-.97,0-.63-.12-1.12-.37-1.46s-.58-.52-.99-.52c-.15,0-.32.03-.48.09-.17.06-.33.17-.48.32s-.27.36-.36.63c-.1.27-.14.59-.14.97,0,.28.03.54.08.78h0Z"/>
          <path class="cls-1" d="M247.22,52.34h.97l1.49,4.12,1.45-4.11h.97l-2.04,5.18h-.88s-1.95-5.2-1.95-5.2Z"/>
          <path class="cls-1" d="M253.33,55.13c0,.58.11,1.04.33,1.37.22.33.55.5,1.01.5.3,0,.54-.09.74-.27.2-.18.32-.45.35-.8h.87v.02c-.02.2-.06.39-.11.55s-.15.34-.29.51c-.14.19-.34.35-.6.48-.26.14-.59.2-1.01.2-.72,0-1.26-.24-1.63-.7-.36-.46-.54-1.12-.54-1.96,0-.57.07-1.05.2-1.44.14-.4.37-.72.71-.99.19-.15.4-.25.63-.31.23-.05.44-.07.65-.07.44,0,.8.08,1.08.25s.49.39.62.65c.14.26.23.53.27.82.05.28.07.58.07.88,0,0,0,.07-.01.18v.14h-3.36s.02-.01.02-.01ZM255.8,54.45c0-.18-.01-.35-.04-.52-.02-.16-.08-.33-.16-.49-.08-.16-.2-.29-.36-.39-.16-.1-.36-.15-.6-.15-.15,0-.29.03-.44.08-.15.06-.28.14-.41.26s-.23.28-.3.48-.11.43-.12.71h2.43s0,.01,0,.01Z"/>
          <path class="cls-1" d="M257.72,53.43c0-.32-.02-.67-.05-1.05h.88l.02,1.01c.07-.32.22-.57.42-.72s.44-.25.69-.29c.12-.02.25-.03.37-.03.02,0,.07,0,.13.01h.1v.95s-.09-.03-.16-.04c-.05,0-.12-.01-.25-.01-.25,0-.45.03-.62.11-.16.07-.3.18-.4.32s-.16.31-.2.49c-.04.19-.06.4-.06.64v2.76h-.88v-4.15Z"/>
        </g>
      </g>
      <polygon class="cls-1" points="110.35 29.76 92.68 29.76 101.52 20.96 110.35 29.76"/>
      <polygon class="cls-1" points="99.78 54.88 102.72 57.84 101.52 59.04 82.41 40 92.26 30.18 92.26 47.52 95.16 50.27 95.53 49.88 92.79 47.29 92.79 30.08 95.48 32.7 113.31 32.71 114.04 33.44 96.11 33.44 96.12 33.45 96.09 33.45 96.09 51.2 98.84 53.94 99.22 53.58 96.62 50.98 96.62 33.93 99.17 36.4 117.01 36.4 117.68 37.06 99.74 37.06 99.82 37.13 99.79 37.13 99.78 54.77 99.78 54.88"/>
      <polygon class="cls-1" points="120.6 40.03 103.1 57.47 100.31 54.66 100.32 37.6 102.89 40.03 120.6 40.03"/>
    </g>
  </g>
</svg>