<?xml version="1.0" encoding="utf-8"?>
<svg xmlns="http://www.w3.org/2000/svg" id="Layer_1" data-name="Layer 1" viewBox="0 0 300 80">
  <defs>
    <style>
      .cls-1 {
        fill: #fff;
      }
    </style>
  </defs>
  <g id="Ebene_1" data-name="Ebene 1">
    <g>
      <rect class="cls-1" x="175.82" y="47.48" width="10.63" height="10.63"/>
      <rect class="cls-1" x="175.82" y="34.38" width="10.63" height="10.63"/>
      <polyline class="cls-1" points="182.44 22.62 187.27 30.98 195.62 26.15 190.8 17.8 182.44 22.62"/>
      <polyline class="cls-1" points="170.08 16.19 176.38 22.48 182.68 16.19 176.38 9.89 170.08 16.19"/>
      <polyline class="cls-1" points="158.21 16.57 164.64 20.28 168.35 13.85 161.92 10.14 158.21 16.57"/>
      <polyline class="cls-1" points="147.68 20.94 153.41 22.48 154.95 16.74 149.21 15.21 147.68 20.94"/>
      <rect class="cls-1" x="139.96" y="23.24" width="4.45" height="4.45"/>
      <rect class="cls-1" x="189.11" y="47.48" width="10.63" height="10.63"/>
      <path class="cls-1" d="M166.74,55.43c-1.15,0-1.52-1.28-1.52-2.56v-5.42h3.72v-2.56h-3.72v-4.84h-3.38v4.84h-2.41v2.56h2.41v6.57c0,2.59,1.49,4.08,3.98,4.08h3.11v-2.67h-2.2M148.96,54.13c0-1.33,1.05-1.47,2.15-1.47h4.11v2.88h-4.37c-1.15,0-1.88-.39-1.88-1.41h0ZM153.34,44.89h-7.07v2.67h5.78c2.46,0,3.14.55,3.14,2.56h-4.61c-3.51,0-5.18,1.13-5.18,4.11.1,2.38,1.49,3.87,4.03,3.87h9.27v-8.27c-.08-4.95-3.82-4.95-5.37-4.95h0ZM135.08,55.41v-7.72h2.15c3.27,0,3.87,1.73,3.9,3.85.03,2.15-.79,3.87-3.93,3.87h-2.12ZM135.08,44.89v-4.84h-3.4v18.06h6.65c5.31,0,6.39-4.42,6.39-6.75-.1-4.19-2.38-6.46-6.6-6.46h-3.04Z"/>
      <path class="cls-1" d="M119.69,54.13c0-1.33,1.05-1.47,2.15-1.47h4.11v2.88h-4.37c-1.15,0-1.88-.39-1.88-1.41M124.06,44.89h-7.07v2.67h5.78c2.46,0,3.14.55,3.14,2.56h-4.61c-3.51,0-5.18,1.13-5.18,4.11.1,2.38,1.49,3.87,4.03,3.87h9.27v-8.27c-.08-4.95-3.82-4.95-5.37-4.95ZM110.7,40.05v7.33h-6.99v-7.33h-3.72v18.06h3.72v-7.59h6.99v7.59h3.64v-18.06h-3.64"/>
      <g>
        <path class="cls-1" d="M102.16,65.7v-1.86h.97v4.8h-.97v-2.13h-1.15v2.13h-.98v-4.8h.98v1.86h1.15,0Z"/>
        <path class="cls-1" d="M106.39,67.8c0,.27.02.53.03.62.02.13.05.18.07.25h-.9c-.06-.2-.07-.37-.07-.44-.04.09-.07.13-.14.21-.22.25-.42.33-.75.33-.37,0-.99-.16-.99-1.08,0-.12,0-.59.36-.87.17-.13.43-.21.88-.31.13-.03.27-.06.4-.12.21-.08.24-.19.24-.4,0-.03,0-.1-.02-.18-.04-.13-.14-.26-.43-.26-.09,0-.36,0-.45.29-.03.1-.03.2-.03.31h-.84c0-.1,0-.19.01-.29.01-.09.06-.38.28-.59.28-.27.71-.32,1.08-.32.34,0,.75.06,1.01.31.05.06.16.18.21.37.05.16.05.42.05.59v1.6h0ZM105.51,67.12c0-.11,0-.22.01-.34-.16.13-.38.18-.58.25-.28.1-.4.25-.4.55,0,.42.25.51.44.51.09,0,.28-.01.42-.21.12-.16.11-.33.11-.52v-.24h0Z"/>
        <path class="cls-1" d="M107.87,65.02v.45c.02-.07.07-.16.21-.28.11-.1.33-.26.71-.26.1,0,.36,0,.57.19.05.03.12.1.18.22.03.06.06.13.06.14.12-.2.34-.56.93-.56.12,0,.55,0,.77.37.12.2.13.37.13.78v2.56h-.94v-2.51c0-.16-.01-.33-.16-.42-.09-.06-.17-.06-.21-.06-.16,0-.29.08-.38.21-.07.12-.09.19-.09.42v2.36h-.93v-2.36c0-.16,0-.31-.02-.36-.04-.18-.18-.27-.35-.27-.07,0-.25.02-.37.19-.09.13-.09.22-.09.49v2.31h-.93v-3.63h.89Z"/>
        <path class="cls-1" d="M112.97,65.44c.1-.18.32-.5.86-.5.22,0,.43.06.61.2.35.28.48.79.48,1.69,0,.77-.12,1.23-.33,1.53-.12.16-.35.4-.82.4-.13,0-.5-.01-.73-.35-.03-.05-.06-.09-.1-.21v.47s-.88,0-.88,0v-4.8h.93v1.59h0ZM112.96,67.31c.02.3.1.72.5.72.11,0,.21-.03.28-.1.19-.19.22-.59.22-1.16,0-.25,0-.69-.13-.9-.11-.21-.28-.22-.37-.22-.24,0-.34.15-.39.23-.13.24-.13.73-.13.99,0,.14,0,.29.01.44h0Z"/>
        <path class="cls-1" d="M116.33,65.02v2.33c0,.14,0,.36.07.49.04.07.13.16.33.16.06,0,.18,0,.31-.1.2-.14.2-.33.19-.55v-2.33h.93v3.63h-.89v-.45c-.04.1-.07.14-.11.18-.29.34-.66.36-.82.36-.28,0-.46-.07-.56-.14-.35-.24-.37-.67-.38-1.04v-2.54h.94Z"/>
        <path class="cls-1" d="M119.65,65.02l-.02.59c.03-.08.16-.36.41-.52.07-.06.23-.13.47-.13.06,0,.1,0,.15,0v.88c-.07,0-.11-.02-.23-.02s-.2.02-.25.03c-.07.02-.38.11-.47.4-.03.07-.03.16-.03.33v2.08h-.92v-3.63h.9,0Z"/>
        <path class="cls-1" d="M121.82,68.92c.01.1.03.15.06.19.06.09.19.18.44.18.2,0,.29-.06.36-.12.17-.16.16-.38.16-.82,0-.08,0-.17,0-.25-.29.46-.61.5-.86.5-.51,0-.76-.31-.86-.46-.15-.25-.26-.67-.26-1.33,0-.7.09-1.12.26-1.39.12-.18.37-.47.9-.47.1,0,.31,0,.54.16.09.07.17.16.18.19.05.06.07.1.13.22v-.47s.86,0,.86,0v3.21c0,.38.01.78-.2,1.11-.27.43-.78.54-1.25.54-.08,0-.33,0-.58-.06-.36-.09-.53-.28-.61-.42-.11-.19-.12-.42-.12-.48h.86,0ZM121.95,67.71c.09.13.21.19.36.19.13,0,.35-.06.45-.37.08-.25.07-.72.07-.74,0-.18,0-.36-.03-.54-.01-.13-.06-.31-.13-.42-.12-.18-.27-.2-.36-.2s-.27.01-.39.22c-.12.22-.13.65-.13.9,0,.26,0,.71.14.95h0Z"/>
        <path class="cls-1" d="M127.03,67.43c0,.11,0,.34-.12.61-.22.56-.7.72-1.26.72-.31,0-.62-.05-.89-.24-.38-.27-.55-.76-.55-1.7,0-.09,0-.42.06-.73.14-.8.6-1.16,1.4-1.16.21,0,.87,0,1.19.61.13.25.21.61.21,1.23,0,.07,0,.13,0,.21h-1.91c0,.11,0,.22,0,.33.01.21.02.49.15.67.12.17.31.17.39.17.41,0,.46-.42.47-.72h.86ZM126.16,66.42c0-.34,0-.89-.49-.89-.05,0-.17,0-.28.09-.22.16-.23.55-.23.79h1.01Z"/>
        <path class="cls-1" d="M128.43,65.02l-.02.59c.03-.08.16-.36.41-.52.07-.06.23-.13.47-.13.06,0,.1,0,.15,0v.88c-.07,0-.11-.02-.23-.02s-.2.02-.25.03c-.07.02-.38.11-.47.4-.03.07-.03.16-.03.33v2.08h-.92v-3.63h.9Z"/>
        <path class="cls-1" d="M133.05,63.85c.47,0,1.01,0,1.33.44.12.15.22.36.22.78,0,.16,0,.64-.44.92-.1.07-.19.09-.3.13.25.06.46.13.62.33.13.16.27.38.27.82,0,.15-.01.31-.06.46-.09.38-.38.7-.75.83-.22.08-.5.09-.74.09h-1.57v-4.8h1.41ZM132.61,65.82h.21c.07,0,.16,0,.24,0,.21-.01.59-.07.59-.62,0-.15-.02-.29-.11-.42-.17-.24-.47-.21-.72-.21h-.21v1.26h0ZM132.61,67.94h.47c.27-.01.68-.09.68-.74,0-.12,0-.55-.42-.69-.11-.03-.21-.04-.33-.04h-.4v1.46h0Z"/>
        <path class="cls-1" d="M137.86,67.8c0,.27.02.53.03.62.02.13.05.18.07.25h-.9c-.06-.2-.07-.37-.07-.44-.04.09-.07.13-.14.21-.22.25-.42.33-.75.33-.37,0-.99-.16-.99-1.08,0-.12,0-.59.36-.87.17-.13.44-.21.88-.31.13-.03.27-.06.4-.12.21-.08.24-.19.24-.4,0-.03,0-.1-.02-.18-.04-.13-.14-.26-.43-.26-.09,0-.36,0-.45.29-.03.1-.03.2-.03.31h-.84c0-.1,0-.19.01-.29.01-.09.06-.38.28-.59.28-.27.71-.32,1.08-.32.34,0,.75.06,1.01.31.05.06.16.18.21.37.05.16.05.42.05.59v1.6h0ZM136.98,67.12c0-.11,0-.22.01-.34-.16.13-.38.18-.58.25-.28.1-.4.25-.4.55,0,.42.25.51.44.51.09,0,.28-.01.42-.21.12-.16.11-.33.11-.52v-.24h0Z"/>
        <path class="cls-1" d="M138.58,65.02v-1.03h.93v1.03h.58v.65h-.58v1.93c0,.18,0,.26.07.33.06.06.13.08.28.08.06,0,.12,0,.18,0v.64c-.13.03-.33.06-.65.06-.09,0-.37.01-.59-.18-.03-.03-.12-.12-.16-.23-.06-.13-.06-.27-.06-.57v-2.06h-.44v-.65h.44Z"/>
        <path class="cls-1" d="M140.51,65.02v-1.03h.93v1.03h.58v.65h-.58v1.93c0,.18,0,.26.07.33.06.06.13.08.28.08.06,0,.12,0,.18,0v.64c-.13.03-.33.06-.65.06-.09,0-.37.01-.59-.18-.03-.03-.12-.12-.16-.23-.06-.13-.06-.27-.06-.57v-2.06h-.44v-.65h.44Z"/>
        <path class="cls-1" d="M145.02,67.43c0,.11,0,.34-.12.61-.22.56-.7.72-1.26.72-.31,0-.62-.05-.89-.24-.38-.27-.55-.76-.55-1.7,0-.09,0-.42.06-.73.14-.8.6-1.16,1.4-1.16.21,0,.87,0,1.19.61.13.25.21.61.21,1.23,0,.07,0,.13,0,.21h-1.91c0,.11,0,.22,0,.33.01.21.02.49.15.67.12.17.31.17.39.17.41,0,.46-.42.47-.72h.86ZM144.15,66.42c0-.34,0-.89-.49-.89-.05,0-.17,0-.28.09-.22.16-.23.55-.23.79h1.01Z"/>
        <path class="cls-1" d="M146.41,65.02l-.02.59c.03-.08.16-.36.41-.52.07-.06.23-.13.47-.13.06,0,.1,0,.15,0v.88c-.07,0-.11-.02-.23-.02s-.2.02-.25.03c-.07.02-.38.11-.47.4-.03.07-.03.16-.03.33v2.08h-.92v-3.63h.9Z"/>
        <path class="cls-1" d="M148.65,63.81v.79h-.93v-.79h.93ZM148.65,65.02v3.63h-.93v-3.63h.93Z"/>
        <path class="cls-1" d="M151.94,67.43c0,.11,0,.34-.12.61-.22.56-.7.72-1.26.72-.31,0-.62-.05-.89-.24-.38-.27-.55-.76-.55-1.7,0-.09,0-.42.06-.73.14-.8.6-1.16,1.4-1.16.21,0,.87,0,1.19.61.13.25.21.61.21,1.23,0,.07,0,.13,0,.21h-1.91c0,.11,0,.22,0,.33.01.21.02.49.15.67.12.17.31.17.39.17.41,0,.46-.42.47-.72h.86ZM151.07,66.42c0-.34,0-.89-.49-.89-.05,0-.17,0-.28.09-.22.16-.23.55-.23.79h1.01,0Z"/>
        <path class="cls-1" d="M154.26,66.23v.8h-1.88v-.8h1.88Z"/>
        <path class="cls-1" d="M156.89,65.02v2.33c0,.14,0,.36.07.49.04.07.13.16.33.16.06,0,.18,0,.31-.1.2-.14.2-.33.19-.55v-2.33h.93v3.63h-.89v-.45c-.04.1-.07.14-.11.18-.29.34-.66.36-.82.36-.28,0-.46-.07-.56-.14-.35-.24-.37-.67-.38-1.04v-2.54h.94Z"/>
        <path class="cls-1" d="M160.12,65.48c.03-.07.05-.08.09-.14.11-.14.38-.4.86-.4.13,0,.58,0,.81.41.14.26.13.52.13.8v2.51h-.94v-2.29c0-.12,0-.25-.02-.37-.02-.12-.08-.33-.38-.33-.06,0-.17,0-.29.09-.22.16-.21.43-.21.51v2.38h-.93v-3.63h.89l-.02.46h0Z"/>
        <path class="cls-1" d="M165.31,68.66h-.89v-.49s-.05.16-.14.27c-.25.32-.56.31-.71.31-.29,0-.46-.07-.57-.15-.41-.25-.56-.8-.56-1.75s.15-1.47.56-1.74c.09-.07.28-.16.58-.16.13,0,.5.02.74.36,0,.02.05.07.07.13v-1.58h.93v4.8h0ZM163.51,67.82c.12.21.29.22.38.22s.25-.02.37-.21c.15-.23.16-.7.16-.95,0-.49-.03-.84-.13-1.02-.05-.08-.16-.21-.4-.21-.1,0-.19.02-.27.09-.21.18-.23.56-.23,1.11,0,.46.03.8.13.96h0Z"/>
        <path class="cls-1" d="M168.72,63.85v4.01h1.77v.8h-2.74v-4.8h.98Z"/>
        <path class="cls-1" d="M173.42,67.8c0,.27.02.53.03.62.02.13.05.18.07.25h-.9c-.06-.2-.07-.37-.07-.44-.04.09-.07.13-.14.21-.22.25-.42.33-.75.33-.37,0-.99-.16-.99-1.08,0-.12,0-.59.36-.87.17-.13.43-.21.88-.31.13-.03.27-.06.4-.12.21-.08.24-.19.24-.4,0-.03,0-.1-.02-.18-.04-.13-.14-.26-.43-.26-.09,0-.36,0-.45.29-.03.1-.03.2-.03.31h-.84c0-.1,0-.19.01-.29.01-.09.06-.38.28-.59.28-.27.71-.32,1.08-.32.34,0,.75.06,1.01.31.05.06.16.18.21.37.05.16.05.42.05.59v1.6h0ZM172.54,67.12c0-.11,0-.22.01-.34-.16.13-.38.18-.58.25-.28.1-.4.25-.4.55,0,.42.25.51.43.51.09,0,.28-.01.42-.21.12-.16.11-.33.11-.52v-.24h0Z"/>
        <path class="cls-1" d="M176.77,68.66h-.89v-.49s-.05.16-.14.27c-.25.32-.56.31-.71.31-.29,0-.46-.07-.57-.15-.41-.25-.56-.8-.56-1.75s.15-1.47.56-1.74c.09-.07.28-.16.58-.16.13,0,.5.02.74.36,0,.02.05.07.07.13v-1.58h.93v4.8h0ZM174.97,67.82c.12.21.29.22.38.22s.25-.02.37-.21c.15-.23.16-.7.16-.95,0-.49-.03-.84-.13-1.02-.05-.08-.16-.21-.4-.21-.1,0-.19.02-.27.09-.21.18-.23.56-.23,1.11,0,.46.03.8.13.96h0Z"/>
        <path class="cls-1" d="M180.06,67.43c0,.11,0,.34-.12.61-.22.56-.7.72-1.26.72-.31,0-.62-.05-.89-.24-.38-.27-.55-.76-.55-1.7,0-.09,0-.42.06-.73.14-.8.6-1.16,1.4-1.16.21,0,.87,0,1.19.61.13.25.21.61.21,1.23,0,.07,0,.13,0,.21h-1.91c0,.11,0,.22,0,.33.01.21.02.49.15.67.12.17.31.17.39.17.41,0,.46-.42.47-.72h.86ZM179.19,66.42c0-.34,0-.89-.49-.89-.05,0-.17,0-.28.09-.22.16-.23.55-.23.79h1.01,0Z"/>
        <path class="cls-1" d="M180.69,65.02v-1.03h.93v1.03h.58v.65h-.58v1.93c0,.18,0,.26.07.33.06.06.13.08.28.08.06,0,.12,0,.18,0v.64c-.13.03-.33.06-.65.06-.09,0-.37.01-.59-.18-.03-.03-.12-.12-.16-.23-.06-.13-.06-.27-.06-.57v-2.06h-.44v-.65h.44Z"/>
        <path class="cls-1" d="M185.2,67.43c0,.11,0,.34-.12.61-.22.56-.7.72-1.26.72-.31,0-.62-.05-.89-.24-.38-.27-.55-.76-.55-1.7,0-.09,0-.42.06-.73.14-.8.6-1.16,1.4-1.16.21,0,.87,0,1.19.61.13.25.21.61.21,1.23,0,.07,0,.13,0,.21h-1.91c0,.11,0,.22,0,.33.01.21.02.49.15.67.12.17.31.17.39.17.41,0,.46-.42.47-.72h.86ZM184.33,66.42c0-.34,0-.89-.49-.89-.05,0-.17,0-.28.09-.22.16-.23.55-.23.79h1.01,0Z"/>
        <path class="cls-1" d="M188.35,67.26c0,.42-.05.81-.34,1.13-.06.07-.21.21-.43.29-.22.07-.48.07-.55.07-.27,0-.53-.03-.78-.16-.61-.33-.66-1.16-.66-1.75,0-.68.1-1.08.27-1.35.18-.29.48-.57,1.2-.57.07,0,.22,0,.41.03.21.05.65.21.82.76.06.19.06.39.07.59h-.88c-.01-.29-.03-.44-.1-.56-.08-.12-.2-.18-.33-.18-.19,0-.28.08-.33.14-.16.19-.2.57-.2,1.12s.03.9.16,1.1c.12.18.28.2.36.2.46,0,.46-.56.46-.86h.86Z"/>
        <path class="cls-1" d="M189.68,65.46c.18-.36.52-.52.9-.52.12,0,.56.01.79.39.16.27.14.56.15.86v2.46h-.93v-2.28c0-.36,0-.54-.18-.65-.09-.06-.19-.06-.22-.06-.07,0-.24.02-.37.16-.14.15-.13.31-.13.5v2.33h-.93v-4.8h.93v1.61h0Z"/>
        <path class="cls-1" d="M192.98,65.48c.03-.07.05-.08.09-.14.11-.14.38-.4.86-.4.13,0,.58,0,.81.41.14.26.13.52.13.8v2.51h-.94v-2.29c0-.12,0-.25-.02-.37-.02-.12-.08-.33-.38-.33-.06,0-.17,0-.29.09-.22.16-.21.43-.21.51v2.38h-.93v-3.63h.89l-.02.46h0Z"/>
        <path class="cls-1" d="M196.38,63.81v.79h-.93v-.79h.93ZM196.38,65.02v3.63h-.93v-3.63h.93Z"/>
        <path class="cls-1" d="M197.87,63.85v2.59l.95-1.41h1.03l-1.05,1.44,1.2,2.19h-1.03l-.78-1.49-.34.43v1.06h-.9v-4.8h.91,0Z"/>
      </g>
    </g>
  </g>
</svg>