<?xml version="1.0" encoding="utf-8"?>
<svg xmlns="http://www.w3.org/2000/svg" id="Layer_1" data-name="Layer 1" viewBox="0 0 300 80">
  <defs>
    <style>
      .cls-1, .cls-2 {
        fill: #fff;
      }

      .cls-2 {
        fill-rule: evenodd;
      }

      .cls-3 {
        fill: none;
      }
    </style>
  </defs>
  <g id="Ebene_1" data-name="Ebene 1">
    <g>
      <path class="cls-1" d="M243.85,52.92c-.06-1.35-1.37-1.89-2.56-1.89s-2.22.43-2.84,1.5c-.36.63-.6,1.43-.6,2.16,0,.99.27,2.17,1.05,2.85.77.68,1.58.81,2.56.81.79,0,1.61-.16,2.41-.41v-3.47h-2.56v.83h1.59v1.99c-.45.15-.92.22-1.4.22-2.01-.04-2.56-1.02-2.63-2.82-.04-1.31.58-2.82,2.3-2.82.75,0,1.48.22,1.65,1.06h1.02"/>
      <path class="cls-2" d="M250.22,55.93v-.45c0-1.35-.69-2.27-2.15-2.3-1.54,0-2.26,1.2-2.26,2.63s.62,2.55,2.19,2.55c1.16,0,2.02-.56,2.17-1.66h-.97c-.11.71-.47.99-1.19.99-.94,0-1.29-.88-1.23-1.74h3.44M246.79,55.28c0-.79.45-1.45,1.23-1.45.9,0,1.26.63,1.24,1.45h-2.47Z"/>
      <path class="cls-1" d="M253.11,55.77c0-1.03.2-1.65,1.37-1.69.12,0,.27,0,.4.05v-.87c-.11,0-.2-.01-.32-.01-.67,0-1.29.34-1.43,1.01h-.02v-.94h-.92v4.88h.92v-2.42"/>
      <path class="cls-2" d="M259.35,55.82c.02.9-.19,1.85-1.27,1.85-.54,0-.96-.3-.96-.9,0-.71.75-.91,1.31-.94h.92M258.51,55.18c-1.16,0-2.37.4-2.37,1.77,0,.95.86,1.39,1.7,1.39.67,0,1.21-.26,1.51-.87h.02c.01.22.03.44.05.66.01.12.18.07.26.07h.62c-.03-.41-.04-.82-.04-1.03v-2.33c0-1.36-.99-1.66-1.99-1.66s-1.8.38-1.85,1.45h.97c.01-.5.45-.78.91-.78.98,0,1.03.49,1.03,1.34h-.83,0Z"/>
      <path class="cls-1" d="M46.65,41.38h1.71v1.51c-.4.19-.85.26-1.32.26-.65,0-1.13-.23-1.43-.75-.23-.4-.33-1.24-.33-2.46,0-1.06.07-2.3.31-2.8.24-.5.73-.89,1.48-.89.31,0,.61.07.82.23.21.16.36.42.39.82h4.67c-.05-2.94-2.07-4.21-5.94-4.21-4.67,0-6.88,2.77-6.88,6.62s2.21,6.62,6.74,6.62c2.05,0,4.32-.33,6.27-.83v-6.58h-6.48v2.47"/>
      <path class="cls-2" d="M60.06,36.11c.99,0,1.53.29,1.53,1.13,0,.73-.36,1.25-1.51,1.25h-.66v-2.39h.65M54.74,45.99h7.02c3.14,0,4.82-1.45,4.82-3.6,0-1.34-.77-2.68-2.7-2.94v-.03c1.86-.44,2.37-1.51,2.37-2.73,0-2.11-1.32-3.26-4.04-3.26h-7.47v12.58h0ZM59.41,40.86h.65c1.17,0,1.76.37,1.76,1.13,0,.92-.49,1.32-1.71,1.32h-.7v-2.46Z"/>
      <path class="cls-2" d="M67.94,45.99h6.2c3.87,0,6.34-2.35,6.34-6.15s-1.6-6.43-6.64-6.43h-5.9v12.58M72.82,36.28h.49c.8,0,1.27.29,1.58.8.33.52.44,1.41.44,2.63s-.1,2.11-.44,2.63c-.31.5-.78.8-1.58.8h-.49v-6.86Z"/>
      <path class="cls-2" d="M124.17,46.16l1.23-3.28h5.25l1.23,3.28h1.71l-4.58-12.58h-1.68l-4.77,12.58h1.62M128.09,35.3l2.05,6.08h-4.22l2.17-6.08Z"/>
      <path class="cls-1" d="M143.14,36.81c-.17-2.25-1.8-3.43-3.98-3.51-3.79-.12-5.02,3.47-5.02,6.55,0,3.52,1.33,6.55,4.67,6.55,2.21,0,4.12-1.4,4.28-3.51h-1.64c-.19,1.34-1.29,2-2.5,2-2.46,0-3.17-2.46-3.17-5.05,0-2.21.52-5.05,3.31-5.05,1.16,0,2.32.8,2.4,2h1.64"/>
      <path class="cls-1" d="M153.14,36.81c-.17-2.25-1.8-3.43-3.98-3.51-3.79-.12-5.02,3.47-5.02,6.55,0,3.52,1.33,6.55,4.67,6.55,2.21,0,4.12-1.4,4.28-3.51h-1.64c-.19,1.34-1.29,2-2.5,2-2.46,0-3.17-2.46-3.17-5.05,0-2.21.52-5.05,3.31-5.05,1.16,0,2.32.8,2.4,2h1.64"/>
      <path class="cls-1" d="M163.91,33.58h-1.57v8.01c-.05,2.16-1.21,3.33-2.99,3.33s-2.95-1.17-2.99-3.33v-8.01h-1.57v7.6c-.05,3.24,1.49,5.25,4.57,5.25s4.61-2,4.57-5.25v-7.6"/>
      <polyline class="cls-1" points="176.77 46.16 178.34 46.16 178.34 33.58 175.72 33.58 172.52 43.95 172.48 43.95 169.22 33.58 166.42 33.58 166.42 46.16 167.99 46.16 167.99 34.83 168.02 34.83 171.64 46.16 173.11 46.16 176.74 34.83 176.77 34.83 176.77 46.16"/>
      <path class="cls-1" d="M189.97,33.58h-1.57v8.01c-.05,2.16-1.21,3.33-2.99,3.33s-2.95-1.17-2.99-3.33v-8.01h-1.57v7.6c-.05,3.24,1.49,5.25,4.57,5.25s4.61-2,4.57-5.25v-7.6"/>
      <polyline class="cls-1" points="199.33 46.16 199.33 44.66 194.06 44.66 194.06 33.58 192.49 33.58 192.49 46.16 199.33 46.16"/>
      <path class="cls-2" d="M201.82,46.16l1.23-3.28h5.25l1.23,3.28h1.71l-4.58-12.58h-1.68l-4.77,12.58h1.62M205.74,35.3l2.05,6.08h-4.22l2.17-6.08Z"/>
      <polyline class="cls-1" points="213.77 46.16 215.34 46.16 215.34 35.07 219.13 35.07 219.13 33.58 209.97 33.58 209.97 35.07 213.77 35.07 213.77 46.16"/>
      <path class="cls-2" d="M219.79,39.87c0,3.68,1.64,6.55,5.17,6.55s5.17-2.88,5.17-6.55-1.64-6.55-5.17-6.55-5.17,2.88-5.17,6.55M221.44,39.87c0-2.68.66-5.05,3.53-5.05s3.53,2.37,3.53,5.05-.66,5.05-3.53,5.05-3.53-2.44-3.53-5.05Z"/>
      <path class="cls-2" d="M233.48,35.07h2.59c1.74.09,2.13.96,2.13,1.95s-.39,1.87-2.13,1.95h-2.59v-3.9M235.7,40.47c.62.05,1.25,0,1.71.57.52.63.52,1.66.64,2.79.08.75.27,1.57.41,2.32h1.68c-.41-1.19-.53-2.52-.7-3.78-.17-1.41-.36-2.21-1.72-2.58v-.03c1.32-.35,2.13-1.51,2.13-3.03,0-2.49-1.96-3.15-3.86-3.15h-4.05v12.58h1.57v-5.68h2.2Z"/>
      <polyline class="cls-1" points="248.99 46.16 248.99 44.66 243.33 44.66 243.33 40.5 248.6 40.5 248.6 38.99 243.33 38.99 243.33 35.07 248.86 35.07 248.86 33.58 241.76 33.58 241.76 46.16 248.99 46.16"/>
      <polyline class="cls-1" points="258.94 33.58 258.94 43.98 258.91 43.98 253.39 33.58 251.25 33.58 251.25 46.16 252.64 46.16 252.64 35.48 252.67 35.48 258.4 46.16 260.34 46.16 260.34 33.58 258.94 33.58"/>
      <polygon class="cls-1" points="99.61 54.9 102.55 57.87 101.34 59.07 82.2 40 92.07 30.17 92.07 47.53 94.98 50.29 95.35 49.9 92.6 47.3 92.6 30.05 95.3 32.69 113.15 32.7 113.89 33.43 95.93 33.43 95.93 33.43 95.91 33.43 95.91 51.22 98.67 53.97 99.04 53.6 96.44 51 96.44 33.92 98.99 36.39 116.86 36.39 117.53 37.06 99.57 37.06 99.64 37.13 99.61 37.13 99.61 54.8 99.61 54.9"/>
      <polygon class="cls-1" points="120.46 40.03 102.93 57.5 100.13 54.69 100.14 37.6 102.72 40.03 120.46 40.03"/>
      <polygon class="cls-1" points="110.19 29.74 92.5 29.74 101.34 20.93 110.19 29.74"/>
      <line class="cls-3" x1="114.03" y1="33.57" x2="113.89" y2="33.43"/>
      <polyline class="cls-1" points="120.37 39.88 120.49 40 120.46 40.03"/>
      <line class="cls-3" x1="117.67" y1="37.2" x2="117.53" y2="37.06"/>
    </g>
  </g>
</svg>