<?xml version="1.0" encoding="utf-8"?>
<svg xmlns="http://www.w3.org/2000/svg" id="Layer_1" data-name="Layer 1" viewBox="0 0 300 80">
  <defs>
    <style>
      .cls-1 {
        fill: #fff;
      }
    </style>
  </defs>
  <g id="Ebene_1" data-name="Ebene 1">
    <g>
      <path class="cls-1" d="M84.48,28.38v3.94h20.61c-.22-.09-.43-.2-.64-.32-1.27-.69-2.04-1.84-2.42-3.61h-17.55,0Z"/>
      <path class="cls-1" d="M195.74,28.38c.16.09.32.19.47.29,1.19.83,1.76,1.83,1.98,3.64h17.71v-3.94h-20.17,0Z"/>
      <path class="cls-1" d="M85.22,28.38c-.87-3.4-3.95-5.9-7.62-5.9-4.34,0-7.87,3.52-7.87,7.87s3.53,7.87,7.87,7.87c3.67,0,6.75-2.5,7.62-5.9.16-.63.25-1.29.25-1.97s-.09-1.34-.25-1.97ZM82.32,30.52c0,.39-.38.7-.84.7h-3.01v3.01c0,.47-.31.84-.69.84h-.35c-.38,0-.69-.37-.69-.84v-3.01h-3.01c-.46,0-.84-.31-.84-.7v-.34c0-.39.38-.7.84-.7h3.01v-3.01c0-.47.31-.84.69-.84h.35c.38,0,.69.37.69.84v3.01h3.01c.47,0,.84.31.84.7v.34Z"/>
      <path class="cls-1" d="M222.4,22.48c-3.67,0-6.75,2.5-7.62,5.9-.16.63-.25,1.29-.25,1.97s.09,1.34.25,1.97c.87,3.4,3.95,5.9,7.62,5.9,4.35,0,7.87-3.52,7.87-7.87s-3.52-7.87-7.87-7.87ZM227.12,30.69c0,.38-.37.68-.84.68h-7.76c-.47,0-.84-.31-.84-.68v-.68c0-.38.37-.68.84-.68h7.76c.47,0,.84.31.84.68v.68Z"/>
      <path class="cls-1" d="M133.67,50.81V9.89h-3.94v18.5h-8.85s.5.29.68.44c1,.85,1.61,1.77,1.86,3.49h6.3v18.5s3.94,0,3.94,0Z"/>
      <path class="cls-1" d="M176.88,28.38h-6.22v-9.84h-3.94v23.61h3.94v-9.84h9.37c-.24-.1-.46-.21-.69-.33-1.29-.69-2.08-1.84-2.46-3.6h0Z"/>
      <path class="cls-1" d="M120.54,29.44c-1.2-.82-2.49-1.1-6.47-1.35-2.51-.17-3.92-.29-4.23-.36-1.14-.25-1.6-.93-1.6-2.42,0-2.27.82-2.77,4.48-2.77,3.38,0,3.88.39,3.88,3.13h5.22c.03-.39.03-.82.03-.96,0-1.95-.43-3.41-1.24-4.44-1.2-1.49-3.13-1.95-8.07-1.95-4.44,0-6.32.36-7.82,1.42-1.31.96-1.95,2.77-1.95,5.54,0,3.23.75,5.01,2.45,5.94,1.2.67,2.38.89,6.36,1.14,2.87.19,4.49.44,4.87.74.46.36.61.82.61,1.99,0,1.32-.18,1.92-.67,2.35-.61.49-1.14.61-3.38.61-3.23,0-3.66-.04-4.26-.5-.53-.46-.78-1.24-.78-2.52v-.43h-5.22c0,2.98.25,4.19.99,5.36,1.21,1.88,3.2,2.42,9.03,2.42,4.83,0,6.65-.39,8.13-1.78,1.14-1.07,1.57-2.55,1.57-5.72s-.43-4.41-1.92-5.44ZM156.02,30.12v-.11c.96-.18,1.53-.39,2.24-.96,1.07-.82,1.45-1.95,1.45-4.3,0-2.77-.67-4.44-2.2-5.36-.99-.64-2.45-.89-4.87-.89h-12.29v23.7h12.65c5.36,0,7.21-1.63,7.21-6.46,0-3.88-1.03-5.22-4.2-5.62h0ZM145.82,23.01h5.76c2.24,0,2.7.39,2.7,2.45,0,1.35-.22,1.95-.82,2.34-.46.32-.64.36-2.88.39h-4.76v-5.19h0ZM150.4,37.69h-4.58v-5.62h5.19c2.03.04,2.17.04,2.56.22.89.32,1.2,1.07,1.2,2.7,0,2.28-.71,2.7-4.37,2.7ZM195.38,29.44c-1.2-.82-2.49-1.1-6.47-1.35-2.51-.17-3.92-.29-4.23-.36-1.14-.25-1.6-.93-1.6-2.42,0-2.27.82-2.77,4.48-2.77,3.38,0,3.88.39,3.88,3.13h5.22c.03-.39.03-.82.03-.96,0-1.95-.43-3.41-1.24-4.44-1.21-1.49-3.13-1.95-8.07-1.95-4.44,0-6.32.36-7.82,1.42-1.32.96-1.95,2.77-1.95,5.54,0,3.23.75,5.01,2.45,5.94,1.2.67,2.38.89,6.36,1.14,2.87.19,4.49.44,4.87.74.46.36.61.82.61,1.99,0,1.32-.18,1.92-.68,2.35-.6.49-1.13.61-3.38.61-3.23,0-3.66-.04-4.26-.5-.53-.46-.78-1.24-.78-2.52v-.43h-5.22c0,2.98.25,4.19.99,5.36,1.21,1.88,3.2,2.42,9.03,2.42,4.83,0,6.64-.39,8.13-1.78,1.14-1.07,1.57-2.55,1.57-5.72s-.43-4.41-1.92-5.44h0Z"/>
      <path class="cls-1" d="M78.26,63.05c-.43-.29-.94-.39-2.5-.46-1.35-.08-1.45-.09-1.67-.14-.46-.11-.63-.39-.63-.99,0-.92.35-1.11,1.95-1.11,1.35,0,1.67.21,1.67,1.09v.13h1.65v-.29c0-.69-.15-1.17-.48-1.53-.43-.46-1.18-.63-2.88-.63-2.9,0-3.63.48-3.63,2.37,0,1.07.28,1.67.94,1.99.46.23.79.28,2.37.37.97.06,1.53.11,1.68.15.38.11.52.37.52.92,0,1.08-.24,1.24-1.87,1.24-1.35,0-1.61-.05-1.83-.37-.15-.22-.19-.42-.19-1.03h-1.65c.02,1.05.09,1.44.38,1.84.44.63,1.18.81,3.21.81,1.84,0,2.55-.15,3.09-.63.41-.34.55-.88.55-1.9s-.17-1.48-.68-1.83ZM83.08,61.55c-2.29,0-2.77.5-2.77,2.89s.46,2.98,2.77,2.98,2.78-.52,2.78-2.92-.47-2.95-2.78-2.95ZM84.64,66.31c-.17.28-.64.4-1.55.4-.79,0-1.3-.11-1.49-.31-.23-.27-.32-.82-.32-1.95,0-.97.08-1.52.26-1.79.19-.28.66-.41,1.56-.41.79,0,1.3.11,1.49.31.23.26.34.84.34,1.93,0,.97-.08,1.54-.27,1.82ZM92.93,65.61h-.94c.02.98-.19,1.1-1.76,1.1s-1.8-.27-1.82-2.08h4.52c0-1.21-.03-1.54-.16-1.92-.3-.88-.92-1.17-2.5-1.17-2.28,0-2.82.56-2.82,2.92s.54,2.96,2.78,2.96c1.99,0,2.72-.42,2.72-1.58,0-.04,0-.13-.01-.23h0ZM90.29,62.22c.97,0,1.37.13,1.55.52.11.24.14.42.15,1.25h-3.56c-.02-1.49.29-1.77,1.85-1.77ZM99.48,64.59c-.27-.32-.66-.45-1.38-.49-1.84-.07-1.88-.07-2.09-.11-.41-.06-.53-.27-.53-.87,0-.81.18-.9,1.61-.9s1.62.08,1.63.9h.92c0-.52-.03-.69-.15-.9-.28-.48-.96-.67-2.34-.67-2.07,0-2.59.33-2.59,1.6,0,.93.27,1.33,1.01,1.5.37.08,1.48.16,2.4.17.72,0,.91.19.91.89,0,.31-.07.56-.2.72-.16.21-.71.32-1.6.32-.74,0-1.21-.07-1.37-.19-.17-.16-.28-.43-.28-.77l.02-.27h-.94c-.01.12-.01.26-.01.33,0,1.16.68,1.58,2.62,1.58,1.22,0,1.83-.11,2.2-.41.32-.26.51-.72.51-1.29,0-.48-.12-.88-.34-1.14h0ZM105.32,65.32h-.85c.02.16.02.24.02.31,0,.88-.18,1.09-.94,1.09-.7,0-.87-.18-.87-.89v-3.5h2.42v-.69h-2.42v-1.37h-.92v1.37h-.87v.69h.87v3.5c0,.49.02.63.08.82.19.54.73.78,1.69.78,1.26,0,1.8-.5,1.8-1.68,0-.07,0-.26-.01-.43h0ZM112.08,65.61h-.94c.02.98-.19,1.1-1.76,1.1s-1.8-.27-1.82-2.08h4.52c0-1.21-.03-1.54-.17-1.92-.29-.88-.91-1.17-2.5-1.17-2.28,0-2.82.56-2.82,2.92s.54,2.96,2.78,2.96c1.99,0,2.72-.42,2.72-1.58,0-.04,0-.13-.01-.23h0ZM109.43,62.22c.97,0,1.37.13,1.56.52.11.24.13.42.14,1.25h-3.56c-.02-1.49.29-1.77,1.85-1.77ZM117.78,61.89c-.29-.26-.76-.39-1.32-.39-.4,0-.83.08-1.14.21-.26.12-.42.26-.64.6h-.03s.09-.67.09-.67h-.92v5.7h.92v-3.42c0-.53.04-.86.14-1.07.21-.41.7-.64,1.37-.64s1.02.24,1.03.72v.59h.9v-.39c0-.63-.12-.98-.42-1.23ZM129.94,63.16v-.04c.97-.19,1.32-.67,1.32-1.79,0-.97-.24-1.53-.81-1.84-.38-.22-.87-.29-1.87-.29h-4.42v8.15h4.66c1.96,0,2.65-.58,2.65-2.23,0-1.31-.37-1.77-1.53-1.94ZM125.88,60.48h2.43c.46,0,.66.03.81.07.31.14.43.39.43.93s-.09.81-.37.96c-.21.12-.47.16-1.22.16h-2.08s0-2.13,0-2.13ZM127.74,66.04h-1.87v-2.27h2.18c.78,0,1,.01,1.19.08.37.14.51.44.51,1.09,0,.97-.24,1.1-2.02,1.1ZM135.58,61.55c-1.99,0-2.47.32-2.5,1.68h.92v-.18c0-.66.38-.86,1.64-.86,1.38,0,1.64.23,1.64,1.57v.68h-.03c-.12-.21-.21-.29-.43-.37-.38-.13-.92-.21-1.59-.21-.87,0-1.49.11-1.84.34s-.57.79-.57,1.48c0,1.28.62,1.74,2.37,1.74,1.21,0,1.75-.18,2.14-.71h.01s-.07.62-.07.62h.92v-3.76c0-1.58-.58-2.03-2.61-2.03ZM137.06,66.39c-.3.21-.89.33-1.69.33-1.29,0-1.59-.22-1.59-1.16,0-.86.28-1.01,1.76-1.01,1.4,0,1.78.23,1.78,1.12,0,.37-.08.59-.26.72ZM143.86,65.32h-.85c.02.16.02.24.02.31,0,.88-.18,1.09-.94,1.09-.69,0-.87-.18-.87-.89v-3.5h2.42v-.69h-2.42v-1.37h-.92v1.37h-.87v.69h.87v3.5c0,.49.02.63.08.82.19.54.73.78,1.69.78,1.26,0,1.8-.5,1.8-1.68,0-.07,0-.26-.01-.43h0ZM149.13,65.32h-.85c.02.16.02.24.02.31,0,.88-.18,1.09-.94,1.09-.7,0-.87-.18-.87-.89v-3.5h2.42v-.69h-2.42v-1.37h-.92v1.37h-.87v.69h.87v3.5c0,.49.02.63.08.82.19.54.73.78,1.69.78,1.26,0,1.8-.5,1.8-1.68,0-.07,0-.26-.01-.43h0ZM155.88,65.61h-.94c.02.98-.19,1.1-1.76,1.1s-1.8-.27-1.82-2.08h4.52c0-1.21-.03-1.54-.16-1.92-.3-.88-.92-1.17-2.5-1.17-2.28,0-2.82.56-2.82,2.92s.54,2.96,2.78,2.96c1.99,0,2.72-.42,2.72-1.58,0-.04,0-.13-.01-.23h0ZM153.23,62.22c.97,0,1.37.13,1.55.52.11.24.14.42.15,1.25h-3.56c-.02-1.49.29-1.77,1.85-1.77ZM161.59,61.89c-.29-.26-.77-.39-1.32-.39-.4,0-.83.08-1.14.21-.26.12-.42.26-.65.6h-.02s.09-.67.09-.67h-.91v5.7h.91v-3.42c0-.53.04-.86.15-1.07.2-.41.7-.64,1.37-.64s1.02.24,1.03.72v.59h.91v-.39c0-.63-.12-.98-.42-1.23h0ZM163.4,59.19v.94h.92v-.94h-.92ZM163.4,61.63v5.7h.92v-5.7h-.92ZM171.53,65.61h-.94c.02.98-.18,1.1-1.76,1.1s-1.8-.27-1.81-2.08h4.51c0-1.21-.03-1.54-.16-1.92-.29-.88-.92-1.17-2.5-1.17-2.29,0-2.83.56-2.83,2.92s.54,2.96,2.78,2.96c1.99,0,2.72-.42,2.72-1.58,0-.04,0-.13-.01-.23h0ZM168.88,62.22c.97,0,1.37.13,1.56.52.11.24.13.42.14,1.25h-3.56c-.01-1.49.29-1.77,1.85-1.77h0ZM184.22,63.05c-.43-.29-.94-.39-2.5-.46-1.36-.08-1.45-.09-1.67-.14-.46-.11-.63-.39-.63-.99,0-.92.35-1.11,1.95-1.11,1.35,0,1.67.21,1.67,1.09v.13h1.65v-.29c0-.69-.15-1.17-.49-1.53-.43-.46-1.18-.63-2.87-.63-2.9,0-3.63.48-3.63,2.37,0,1.07.28,1.67.94,1.99.46.23.79.28,2.37.37.97.06,1.53.11,1.68.15.38.11.53.37.53.92,0,1.08-.24,1.24-1.87,1.24-1.35,0-1.61-.05-1.83-.37-.15-.22-.19-.42-.19-1.03h-1.65c.02,1.05.09,1.44.38,1.84.44.63,1.18.81,3.21.81,1.84,0,2.55-.15,3.09-.63.41-.34.55-.88.55-1.9s-.17-1.48-.68-1.83ZM190.15,61.63l-.71,2.54c-.23.83-.46,1.68-.68,2.54h-.03c-.11-.28-.22-.56-.32-.86-.09-.27-.31-.83-.65-1.68l-.97-2.54h-.97l2.27,5.7h.33c-.42,1.53-.66,1.85-1.37,1.85-.06,0-.18-.02-.28-.03v.7c.19.02.27.03.44.03.64,0,1.17-.23,1.46-.64.22-.29.47-.91.67-1.58l1.78-6.04h-.98ZM197.17,64.59c-.27-.32-.66-.45-1.38-.49-1.84-.07-1.88-.07-2.1-.11-.4-.06-.52-.27-.52-.87,0-.81.18-.9,1.61-.9s1.62.08,1.63.9h.92c0-.52-.03-.69-.15-.9-.28-.48-.96-.67-2.34-.67-2.07,0-2.59.33-2.59,1.6,0,.93.27,1.33,1.01,1.5.37.08,1.48.16,2.4.17.72,0,.91.19.91.89,0,.31-.07.56-.2.72-.16.21-.71.32-1.6.32-.74,0-1.21-.07-1.37-.19-.17-.16-.28-.43-.28-.77l.02-.27h-.94c-.01.12-.01.26-.01.33,0,1.16.68,1.58,2.62,1.58,1.22,0,1.83-.11,2.2-.41.32-.26.51-.72.51-1.29,0-.48-.12-.88-.34-1.14h0ZM203.02,65.32h-.85c.01.16.01.24.01.31,0,.88-.17,1.09-.94,1.09-.7,0-.87-.18-.87-.89v-3.5h2.42v-.69h-2.42v-1.37h-.92v1.37h-.87v.69h.87v3.5c0,.49.02.63.08.82.19.54.73.78,1.69.78,1.26,0,1.8-.5,1.8-1.68,0-.07,0-.26-.01-.43h0ZM209.77,65.61h-.94c.01.98-.19,1.1-1.76,1.1s-1.8-.27-1.82-2.08h4.51c0-1.21-.02-1.54-.16-1.92-.3-.88-.92-1.17-2.5-1.17-2.28,0-2.82.56-2.82,2.92s.54,2.96,2.78,2.96c1.99,0,2.72-.42,2.72-1.58,0-.04,0-.13-.02-.23h0ZM207.13,62.22c.97,0,1.37.13,1.56.52.11.24.13.42.14,1.25h-3.56c-.02-1.49.29-1.77,1.85-1.77h0ZM220.56,62.29c-.29-.49-.96-.74-1.95-.74-1.1,0-1.74.28-2.16.96h-.02c-.23-.63-.9-.96-1.93-.96s-1.68.28-2.06.96h-.02s.02-.88.02-.88h-.91v5.7h.91v-3.24c0-1.33.53-1.84,1.88-1.84.63,0,1.09.15,1.27.42.06.11.11.42.13.94v3.73h.92v-3.3c0-.55.04-.86.13-1.08.2-.46.83-.7,1.77-.7.62,0,1.04.13,1.2.41.11.16.17.52.17.87v3.81h.92v-3.73c0-.63-.08-1-.27-1.32h0ZM228.05,65.61h-.94c.02.98-.19,1.1-1.76,1.1s-1.8-.27-1.81-2.08h4.51c0-1.21-.03-1.54-.16-1.92-.29-.88-.92-1.17-2.5-1.17-2.29,0-2.83.56-2.83,2.92s.54,2.96,2.78,2.96c1.99,0,2.72-.42,2.72-1.58,0-.04,0-.13-.01-.23h0ZM225.41,62.22c.97,0,1.37.13,1.56.52.11.24.13.42.14,1.25h-3.56c-.01-1.49.29-1.77,1.85-1.77Z"/>
      <path class="cls-1" d="M78.26,63.05c-.43-.29-.94-.39-2.5-.46-1.35-.08-1.45-.09-1.67-.14-.46-.11-.63-.39-.63-.99,0-.92.35-1.11,1.95-1.11,1.35,0,1.67.21,1.67,1.09v.13h1.65v-.29c0-.69-.15-1.17-.48-1.53-.43-.46-1.18-.63-2.88-.63-2.9,0-3.63.48-3.63,2.37,0,1.07.28,1.67.94,1.99.46.23.79.28,2.37.37.97.06,1.53.11,1.68.15.38.11.52.37.52.92,0,1.08-.24,1.24-1.87,1.24-1.35,0-1.61-.05-1.83-.37-.15-.22-.19-.42-.19-1.03h-1.65c.02,1.05.09,1.44.38,1.84.44.63,1.18.81,3.21.81,1.84,0,2.55-.15,3.09-.63.41-.34.55-.88.55-1.9s-.17-1.48-.68-1.83ZM83.08,61.55c-2.29,0-2.77.5-2.77,2.89s.46,2.98,2.77,2.98,2.78-.52,2.78-2.92-.47-2.95-2.78-2.95ZM84.64,66.31c-.17.28-.64.4-1.55.4-.79,0-1.3-.11-1.49-.31-.23-.27-.32-.82-.32-1.95,0-.97.08-1.52.26-1.79.19-.28.66-.41,1.56-.41.79,0,1.3.11,1.49.31.23.26.34.84.34,1.93,0,.97-.08,1.54-.27,1.82ZM92.93,65.61h-.94c.02.98-.19,1.1-1.76,1.1s-1.8-.27-1.82-2.08h4.52c0-1.21-.03-1.54-.16-1.92-.3-.88-.92-1.17-2.5-1.17-2.28,0-2.82.56-2.82,2.92s.54,2.96,2.78,2.96c1.99,0,2.72-.42,2.72-1.58,0-.04,0-.13-.01-.23h0ZM90.29,62.22c.97,0,1.37.13,1.55.52.11.24.14.42.15,1.25h-3.56c-.02-1.49.29-1.77,1.85-1.77ZM99.48,64.59c-.27-.32-.66-.45-1.38-.49-1.84-.07-1.88-.07-2.09-.11-.41-.06-.53-.27-.53-.87,0-.81.18-.9,1.61-.9s1.62.08,1.63.9h.92c0-.52-.03-.69-.15-.9-.28-.48-.96-.67-2.34-.67-2.07,0-2.59.33-2.59,1.6,0,.93.27,1.33,1.01,1.5.37.08,1.48.16,2.4.17.72,0,.91.19.91.89,0,.31-.07.56-.2.72-.16.21-.71.32-1.6.32-.74,0-1.21-.07-1.37-.19-.17-.16-.28-.43-.28-.77l.02-.27h-.94c-.01.12-.01.26-.01.33,0,1.16.68,1.58,2.62,1.58,1.22,0,1.83-.11,2.2-.41.32-.26.51-.72.51-1.29,0-.48-.12-.88-.34-1.14h0ZM105.32,65.32h-.85c.02.16.02.24.02.31,0,.88-.18,1.09-.94,1.09-.7,0-.87-.18-.87-.89v-3.5h2.42v-.69h-2.42v-1.37h-.92v1.37h-.87v.69h.87v3.5c0,.49.02.63.08.82.19.54.73.78,1.69.78,1.26,0,1.8-.5,1.8-1.68,0-.07,0-.26-.01-.43h0ZM112.08,65.61h-.94c.02.98-.19,1.1-1.76,1.1s-1.8-.27-1.82-2.08h4.52c0-1.21-.03-1.54-.17-1.92-.29-.88-.91-1.17-2.5-1.17-2.28,0-2.82.56-2.82,2.92s.54,2.96,2.78,2.96c1.99,0,2.72-.42,2.72-1.58,0-.04,0-.13-.01-.23h0ZM109.43,62.22c.97,0,1.37.13,1.56.52.11.24.13.42.14,1.25h-3.56c-.02-1.49.29-1.77,1.85-1.77ZM117.78,61.89c-.29-.26-.76-.39-1.32-.39-.4,0-.83.08-1.14.21-.26.12-.42.26-.64.6h-.03s.09-.67.09-.67h-.92v5.7h.92v-3.42c0-.53.04-.86.14-1.07.21-.41.7-.64,1.37-.64s1.02.24,1.03.72v.59h.9v-.39c0-.63-.12-.98-.42-1.23ZM129.94,63.16v-.04c.97-.19,1.32-.67,1.32-1.79,0-.97-.24-1.53-.81-1.84-.38-.22-.87-.29-1.87-.29h-4.42v8.15h4.66c1.96,0,2.65-.58,2.65-2.23,0-1.31-.37-1.77-1.53-1.94ZM125.88,60.48h2.43c.46,0,.66.03.81.07.31.14.43.39.43.93s-.09.81-.37.96c-.21.12-.47.16-1.22.16h-2.08s0-2.13,0-2.13ZM127.74,66.04h-1.87v-2.27h2.18c.78,0,1,.01,1.19.08.37.14.51.44.51,1.09,0,.97-.24,1.1-2.02,1.1ZM135.58,61.55c-1.99,0-2.47.32-2.5,1.68h.92v-.18c0-.66.38-.86,1.64-.86,1.38,0,1.64.23,1.64,1.57v.68h-.03c-.12-.21-.21-.29-.43-.37-.38-.13-.92-.21-1.59-.21-.87,0-1.49.11-1.84.34s-.57.79-.57,1.48c0,1.28.62,1.74,2.37,1.74,1.21,0,1.75-.18,2.14-.71h.01s-.07.62-.07.62h.92v-3.76c0-1.58-.58-2.03-2.61-2.03ZM137.06,66.39c-.3.21-.89.33-1.69.33-1.29,0-1.59-.22-1.59-1.16,0-.86.28-1.01,1.76-1.01,1.4,0,1.78.23,1.78,1.12,0,.37-.08.59-.26.72ZM143.86,65.32h-.85c.02.16.02.24.02.31,0,.88-.18,1.09-.94,1.09-.69,0-.87-.18-.87-.89v-3.5h2.42v-.69h-2.42v-1.37h-.92v1.37h-.87v.69h.87v3.5c0,.49.02.63.08.82.19.54.73.78,1.69.78,1.26,0,1.8-.5,1.8-1.68,0-.07,0-.26-.01-.43h0ZM149.13,65.32h-.85c.02.16.02.24.02.31,0,.88-.18,1.09-.94,1.09-.7,0-.87-.18-.87-.89v-3.5h2.42v-.69h-2.42v-1.37h-.92v1.37h-.87v.69h.87v3.5c0,.49.02.63.08.82.19.54.73.78,1.69.78,1.26,0,1.8-.5,1.8-1.68,0-.07,0-.26-.01-.43h0ZM155.88,65.61h-.94c.02.98-.19,1.1-1.76,1.1s-1.8-.27-1.82-2.08h4.52c0-1.21-.03-1.54-.16-1.92-.3-.88-.92-1.17-2.5-1.17-2.28,0-2.82.56-2.82,2.92s.54,2.96,2.78,2.96c1.99,0,2.72-.42,2.72-1.58,0-.04,0-.13-.01-.23h0ZM153.23,62.22c.97,0,1.37.13,1.55.52.11.24.14.42.15,1.25h-3.56c-.02-1.49.29-1.77,1.85-1.77ZM161.59,61.89c-.29-.26-.77-.39-1.32-.39-.4,0-.83.08-1.14.21-.26.12-.42.26-.65.6h-.02s.09-.67.09-.67h-.91v5.7h.91v-3.42c0-.53.04-.86.15-1.07.2-.41.7-.64,1.37-.64s1.02.24,1.03.72v.59h.91v-.39c0-.63-.12-.98-.42-1.23h0ZM163.4,59.19v.94h.92v-.94h-.92ZM163.4,61.63v5.7h.92v-5.7h-.92ZM171.53,65.61h-.94c.02.98-.18,1.1-1.76,1.1s-1.8-.27-1.81-2.08h4.51c0-1.21-.03-1.54-.16-1.92-.29-.88-.92-1.17-2.5-1.17-2.29,0-2.83.56-2.83,2.92s.54,2.96,2.78,2.96c1.99,0,2.72-.42,2.72-1.58,0-.04,0-.13-.01-.23h0ZM168.88,62.22c.97,0,1.37.13,1.56.52.11.24.13.42.14,1.25h-3.56c-.01-1.49.29-1.77,1.85-1.77h0ZM184.22,63.05c-.43-.29-.94-.39-2.5-.46-1.36-.08-1.45-.09-1.67-.14-.46-.11-.63-.39-.63-.99,0-.92.35-1.11,1.95-1.11,1.35,0,1.67.21,1.67,1.09v.13h1.65v-.29c0-.69-.15-1.17-.49-1.53-.43-.46-1.18-.63-2.87-.63-2.9,0-3.63.48-3.63,2.37,0,1.07.28,1.67.94,1.99.46.23.79.28,2.37.37.97.06,1.53.11,1.68.15.38.11.53.37.53.92,0,1.08-.24,1.24-1.87,1.24-1.35,0-1.61-.05-1.83-.37-.15-.22-.19-.42-.19-1.03h-1.65c.02,1.05.09,1.44.38,1.84.44.63,1.18.81,3.21.81,1.84,0,2.55-.15,3.09-.63.41-.34.55-.88.55-1.9s-.17-1.48-.68-1.83ZM190.15,61.63l-.71,2.54c-.23.83-.46,1.68-.68,2.54h-.03c-.11-.28-.22-.56-.32-.86-.09-.27-.31-.83-.65-1.68l-.97-2.54h-.97l2.27,5.7h.33c-.42,1.53-.66,1.85-1.37,1.85-.06,0-.18-.02-.28-.03v.7c.19.02.27.03.44.03.64,0,1.17-.23,1.46-.64.22-.29.47-.91.67-1.58l1.78-6.04h-.98ZM197.17,64.59c-.27-.32-.66-.45-1.38-.49-1.84-.07-1.88-.07-2.1-.11-.4-.06-.52-.27-.52-.87,0-.81.18-.9,1.61-.9s1.62.08,1.63.9h.92c0-.52-.03-.69-.15-.9-.28-.48-.96-.67-2.34-.67-2.07,0-2.59.33-2.59,1.6,0,.93.27,1.33,1.01,1.5.37.08,1.48.16,2.4.17.72,0,.91.19.91.89,0,.31-.07.56-.2.72-.16.21-.71.32-1.6.32-.74,0-1.21-.07-1.37-.19-.17-.16-.28-.43-.28-.77l.02-.27h-.94c-.01.12-.01.26-.01.33,0,1.16.68,1.58,2.62,1.58,1.22,0,1.83-.11,2.2-.41.32-.26.51-.72.51-1.29,0-.48-.12-.88-.34-1.14h0ZM203.02,65.32h-.85c.01.16.01.24.01.31,0,.88-.17,1.09-.94,1.09-.7,0-.87-.18-.87-.89v-3.5h2.42v-.69h-2.42v-1.37h-.92v1.37h-.87v.69h.87v3.5c0,.49.02.63.08.82.19.54.73.78,1.69.78,1.26,0,1.8-.5,1.8-1.68,0-.07,0-.26-.01-.43h0ZM209.77,65.61h-.94c.01.98-.19,1.1-1.76,1.1s-1.8-.27-1.82-2.08h4.51c0-1.21-.02-1.54-.16-1.92-.3-.88-.92-1.17-2.5-1.17-2.28,0-2.82.56-2.82,2.92s.54,2.96,2.78,2.96c1.99,0,2.72-.42,2.72-1.58,0-.04,0-.13-.02-.23h0ZM207.13,62.22c.97,0,1.37.13,1.56.52.11.24.13.42.14,1.25h-3.56c-.02-1.49.29-1.77,1.85-1.77h0ZM220.56,62.29c-.29-.49-.96-.74-1.95-.74-1.1,0-1.74.28-2.16.96h-.02c-.23-.63-.9-.96-1.93-.96s-1.68.28-2.06.96h-.02s.02-.88.02-.88h-.91v5.7h.91v-3.24c0-1.33.53-1.84,1.88-1.84.63,0,1.09.15,1.27.42.06.11.11.42.13.94v3.73h.92v-3.3c0-.55.04-.86.13-1.08.2-.46.83-.7,1.77-.7.62,0,1.04.13,1.2.41.11.16.17.52.17.87v3.81h.92v-3.73c0-.63-.08-1-.27-1.32h0ZM228.05,65.61h-.94c.02.98-.19,1.1-1.76,1.1s-1.8-.27-1.81-2.08h4.51c0-1.21-.03-1.54-.16-1.92-.29-.88-.92-1.17-2.5-1.17-2.29,0-2.83.56-2.83,2.92s.54,2.96,2.78,2.96c1.99,0,2.72-.42,2.72-1.58,0-.04,0-.13-.01-.23h0ZM225.41,62.22c.97,0,1.37.13,1.56.52.11.24.13.42.14,1.25h-3.56c-.01-1.49.29-1.77,1.85-1.77Z"/>
    </g>
  </g>
</svg>