<?xml version="1.0" encoding="utf-8"?>
<svg xmlns="http://www.w3.org/2000/svg" id="Layer_1" data-name="Layer 1" viewBox="0 0 300 80">
  <defs>
    <style>
      .cls-1, .cls-2 {
        fill: #fff;
      }

      .cls-2 {
        fill-rule: evenodd;
      }
    </style>
  </defs>
  <g id="Ebene_1" data-name="Ebene 1">
    <g>
      <path class="cls-2" d="M124.14,45.64l1.23-3.28h5.25l1.23,3.28h1.71l-4.58-12.58h-1.68l-4.77,12.58h1.62M128.06,34.79l2.05,6.08h-4.22s2.17-6.08,2.17-6.08Z"/>
      <path class="cls-1" d="M143.12,36.31c-.17-2.25-1.8-3.43-3.98-3.51-3.79-.12-5.02,3.47-5.02,6.55,0,3.52,1.33,6.55,4.67,6.55,2.21,0,4.12-1.4,4.28-3.51h-1.64c-.19,1.34-1.29,2-2.5,2-2.46,0-3.17-2.46-3.17-5.05,0-2.21.52-5.05,3.31-5.05,1.16,0,2.32.8,2.4,2h1.64"/>
      <path class="cls-1" d="M153.11,36.31c-.17-2.25-1.8-3.43-3.98-3.51-3.79-.12-5.02,3.47-5.02,6.55,0,3.52,1.33,6.55,4.67,6.55,2.21,0,4.12-1.4,4.28-3.51h-1.64c-.19,1.34-1.29,2-2.5,2-2.46,0-3.17-2.46-3.17-5.05,0-2.21.52-5.05,3.31-5.05,1.16,0,2.32.8,2.4,2h1.64"/>
      <path class="cls-1" d="M163.89,33.06h-1.57v8.01c-.05,2.16-1.21,3.33-2.99,3.33s-2.95-1.17-2.99-3.33v-8.01h-1.57v7.6c-.05,3.24,1.49,5.25,4.57,5.25s4.61-2,4.57-5.25v-7.6"/>
      <polyline class="cls-1" points="176.74 45.64 178.31 45.64 178.31 33.06 175.69 33.06 172.49 43.43 172.46 43.43 169.2 33.06 166.39 33.06 166.39 45.64 167.96 45.64 167.96 34.32 167.99 34.32 171.61 45.64 173.09 45.64 176.71 34.32 176.74 34.32 176.74 45.64"/>
      <path class="cls-1" d="M189.95,33.06h-1.57v8.01c-.05,2.16-1.21,3.33-2.99,3.33s-2.95-1.17-2.99-3.33v-8.01h-1.57v7.6c-.05,3.24,1.49,5.25,4.57,5.25s4.61-2,4.57-5.25v-7.6"/>
      <polyline class="cls-1" points="199.31 45.64 199.31 44.15 194.04 44.15 194.04 33.06 192.47 33.06 192.47 45.64 199.31 45.64"/>
      <path class="cls-2" d="M201.8,45.64l1.23-3.28h5.25l1.23,3.28h1.71l-4.58-12.58h-1.68l-4.77,12.58h1.62M205.71,34.79l2.05,6.08h-4.22s2.17-6.08,2.17-6.08Z"/>
      <polyline class="cls-1" points="213.74 45.64 215.31 45.64 215.31 34.56 219.11 34.56 219.11 33.06 209.95 33.06 209.95 34.56 213.74 34.56 213.74 45.64"/>
      <path class="cls-2" d="M219.76,39.35c0,3.68,1.64,6.55,5.17,6.55s5.17-2.88,5.17-6.55-1.64-6.55-5.17-6.55-5.17,2.88-5.17,6.55M221.41,39.35c0-2.68.66-5.05,3.53-5.05s3.53,2.37,3.53,5.05-.66,5.05-3.53,5.05-3.53-2.44-3.53-5.05Z"/>
      <path class="cls-2" d="M233.45,34.56h2.59c1.74.09,2.13.96,2.13,1.95s-.39,1.87-2.13,1.95h-2.59v-3.9M235.68,39.97c.62.05,1.25,0,1.71.57.52.63.52,1.66.64,2.79.08.75.27,1.57.41,2.32h1.68c-.41-1.19-.53-2.52-.7-3.78-.18-1.41-.36-2.21-1.72-2.58v-.03c1.32-.35,2.13-1.51,2.13-3.03,0-2.49-1.96-3.15-3.86-3.15h-4.05v12.58h1.57v-5.68h2.2Z"/>
      <polyline class="cls-1" points="248.97 45.64 248.97 44.15 243.3 44.15 243.3 39.98 248.57 39.98 248.57 38.49 243.3 38.49 243.3 34.56 248.83 34.56 248.83 33.06 241.73 33.06 241.73 45.64 248.97 45.64"/>
      <polyline class="cls-1" points="258.92 33.06 258.92 43.47 258.89 43.47 253.37 33.06 251.22 33.06 251.22 45.64 252.61 45.64 252.61 34.96 252.65 34.96 258.37 45.64 260.32 45.64 260.32 33.06 258.92 33.06"/>
      <path class="cls-2" d="M46.15,40.41l1.1-4.74h.03l.99,4.74h-2.13M40.12,45.5h4.78l.5-2.02h3.61l.49,2.02h5.16l-4.04-12.58h-6.46l-4.03,12.58Z"/>
      <rect class="cls-1" x="55.21" y="32.92" width="4.99" height="12.58"/>
      <polyline class="cls-1" points="74.38 45.5 78.6 45.5 78.6 32.92 71.68 32.92 70.3 40.41 70.26 40.41 68.88 32.92 61.97 32.92 61.97 45.5 66.18 45.5 66.18 36.51 66.22 36.51 68 45.5 72.57 45.5 74.34 36.51 74.38 36.51 74.38 45.5"/>
      <polyline class="cls-1" points="218.45 50.71 218.45 56.45 218.43 56.45 215.04 50.71 213.72 50.71 213.72 57.66 214.58 57.66 214.58 51.76 214.6 51.76 218.11 57.66 219.31 57.66 219.31 50.71 218.45 50.71"/>
      <path class="cls-2" d="M224.29,51.69h.87v-.98h-.87v.98ZM222.49,51.69h.87v-.98h-.87v.98ZM225.01,55.31c0,.11-.01.69-.18,1.13-.19.5-.7.69-1.08.69-.87,0-1.07-.62-1.07-1.45v-2.86h-.91v3.23c0,.97.58,1.74,1.59,1.74.67,0,1.29-.25,1.66-.86h.02v.71h.9v-4.83h-.91v2.48h0Z"/>
      <path class="cls-1" d="M229.23,55.26c0-1.02.2-1.63,1.36-1.67.12,0,.27,0,.4.05v-.87c-.11,0-.2-.01-.32-.01-.66,0-1.28.33-1.41,1h-.02v-.94h-.91v4.83h.91v-2.39"/>
      <path class="cls-1" d="M233.56,52.82h-.9v4.83h.91v-2.63c0-.94.25-1.16.39-1.29.39-.39.88-.36.88-.36.77,0,1.11.43,1.11,1.23v3.04h.91v-3.34c0-1.55-1.49-1.63-1.83-1.63-.48,0-1.16.25-1.46.86h-.02v-.71"/>
      <path class="cls-2" d="M242.79,55.24c0,.9-.33,1.89-1.37,1.89-1.11,0-1.37-.99-1.37-1.89s.33-1.89,1.37-1.89c1.09,0,1.37.99,1.37,1.89M240.08,56.94l-.02-.05h.02c.33.67.96.91,1.66.91,1.44,0,2.01-1.32,2.01-2.56,0-1.31-.67-2.56-2.17-2.56-.62,0-1.22.22-1.5.8h-.02v-2.77h-.91v6.18c0,.19-.03.48-.05.77h.94l.04-.72h0Z"/>
      <path class="cls-2" d="M249.69,55.42v-.45c0-1.34-.68-2.25-2.13-2.28-1.53,0-2.24,1.19-2.24,2.6s.62,2.52,2.17,2.52c1.16,0,2-.55,2.14-1.64h-.96c-.11.7-.47.98-1.17.98-.94,0-1.28-.87-1.21-1.72h3.41M246.29,54.78c0-.79.45-1.44,1.21-1.44.88,0,1.25.62,1.23,1.44h-2.44Z"/>
      <path class="cls-1" d="M252.63,55.26c0-1.02.2-1.63,1.36-1.67.12,0,.27,0,.4.05v-.87c-.11,0-.2-.01-.32-.01-.66,0-1.28.33-1.42,1h-.02v-.94h-.91v4.83h.91v-2.39"/>
      <path class="cls-2" d="M256.66,55.13c0-.76.29-1.78,1.36-1.78.99,0,1.36.85,1.36,1.78s-.36,1.78-1.36,1.78c-1.07,0-1.36-1.02-1.36-1.78M259.37,53.55c0,.07-.12-.21-.14-.23-.3-.44-.82-.64-1.29-.64-1.46,0-2.24,1.09-2.24,2.49s.58,2.39,2.06,2.39c.6,0,1.3-.24,1.59-.82h.03c-.03,1.09-.03,2.17-1.33,2.17-.65,0-1.09-.25-1.13-.9h-.96c.01,1.12.75,1.56,1.79,1.56,1.77,0,2.54-.72,2.54-2.49v-3.4c0-.29.03-.58.06-.87h-.94l-.03.72h0Z"/>
      <polygon class="cls-1" points="99.58 54.4 102.52 57.36 101.32 58.56 82.17 39.49 92.04 29.66 92.04 47.02 94.96 49.77 95.32 49.39 92.57 46.8 92.57 29.55 95.28 32.18 113.13 32.19 113.87 32.92 96.25 32.92 95.9 32.92 95.88 32.92 95.88 50.71 98.65 53.46 99.02 53.09 96.41 50.49 96.41 33.41 98.96 35.88 116.84 35.88 117.51 36.55 99.54 36.55 99.62 36.62 99.59 36.62 99.58 54.29 99.58 54.4"/>
      <polygon class="cls-1" points="120.44 39.51 102.9 56.99 100.11 54.17 100.12 37.08 102.7 39.51 120.44 39.51"/>
      <polygon class="cls-1" points="110.16 29.23 92.48 29.23 101.32 20.42 110.16 29.23"/>
    </g>
  </g>
</svg>