<?xml version="1.0" encoding="utf-8"?>
<svg xmlns="http://www.w3.org/2000/svg" id="Layer_1" data-name="Layer 1" viewBox="0 0 300 80">
  <defs>
    <style>
      .cls-1 {
        fill: #fff;
      }
    </style>
  </defs>
  <g id="Ebene_1" data-name="Ebene 1">
    <g>
      <path class="cls-1" d="M82.51,24.49h-13.94v7.77h13.94c1.04,0,1.55,1.04,1.55,1.93s-.52,1.98-1.55,1.98h-4.15v7.12l5.59,12.23h8.76l-6.34-13.37c3.53-1.55,5.46-4.38,5.46-8.29,0-5.04-4.28-9.37-9.32-9.37"/>
      <rect class="cls-1" x="68.57" y="36.16" width="7.72" height="19.35"/>
      <rect class="cls-1" x="94.49" y="24.49" width="7.77" height="31.03"/>
      <polygon class="cls-1" points="152.32 32.25 152.32 24.49 126.08 24.49 128.86 32.25 139.05 32.25 139.05 55.51 146.82 55.51 146.82 32.25 152.32 32.25"/>
      <polygon class="cls-1" points="66.36 32.25 66.36 24.49 40.12 24.49 42.9 32.25 53.09 32.25 53.09 55.51 60.85 55.51 60.85 32.25 66.36 32.25"/>
      <path class="cls-1" d="M119.12,34.79l3.23,8.56h-6.47s3.23-8.56,3.23-8.56ZM134.61,55.51l-11.3-31.03h-8.38l-11.3,31.03h7.66l2.07-5.49h11.51l2.07,5.49h7.67Z"/>
      <polygon class="cls-1" points="179.46 55.51 179.46 24.49 171.69 24.49 171.69 36.12 162.67 36.12 162.67 24.49 154.9 24.49 154.9 55.51 162.67 55.51 162.67 43.88 171.69 43.88 171.69 55.51 179.46 55.51"/>
      <path class="cls-1" d="M204.77,52.24c-6.93,1.19-13.25,1.5-13.25,1.5l4.47-1.04c2.83-.71,5.3-1.43,7.48-2.14-.61-.89-1.16-1.83-1.62-2.82h-11.4v-23.26h-7.77v31.03h25.8c-1.38-.92-2.63-2.02-3.71-3.27h0Z"/>
      <g>
        <path class="cls-1" d="M221.31,34.64c3.26,2.02,8.29,2.05,12.56,1.56-1.71-6.69-7.79-11.72-14.99-11.72-5.78,0-10.85,3.24-13.51,7.98,7.97-.94,15.94,2.17,15.94,2.17h0ZM222.77,26.89c1.66,0,3,1.13,3,3.09s-1.35,3.55-3.01,3.55-3.01-1.59-3.01-3.55,1.36-3.09,3.02-3.09h0Z"/>
        <path class="cls-1" d="M224.18,42.13c3.21,1.26,5.66,3.81,7.49,6.62,1.7-2.49,2.71-5.49,2.71-8.72,0-.74-.07-1.46-.17-2.17-5.03,1.21-10.35,1.64-10.35,1.64l.32,2.63h0Z"/>
        <path class="cls-1" d="M218.47,48.11c-2.61,1.47-6.18,2.57-9.88,3.38,2.75,2.48,6.36,4.02,10.29,4.02,4.49,0,8.54-1.95,11.37-5.02-6.25-6.41-11.79-2.38-11.79-2.38h0Z"/>
        <path class="cls-1" d="M218.47,38.02c-1.46-3.98-8.8-4.65-13.56-4.65-.97,2.02-1.52,4.28-1.52,6.65,0,3.52,1.24,6.79,3.29,9.42,15.88-5.99,11.79-11.42,11.79-11.42Z"/>
      </g>
      <path class="cls-1" d="M248.76,24.49h-11.75v11.25c2.86-.51,4.88-1.11,4.88-1.11-1.08.99-2.86,1.79-4.88,2.44v18.44h7.77v-23.26h3.91v-.02s.05.02.07.02c2.17,0,3.86,1.74,3.86,3.91v19.35h7.77v-19.35c0-6.4-5.27-11.68-11.63-11.68Z"/>
    </g>
  </g>
</svg>