<?xml version="1.0" encoding="utf-8"?>
<svg xmlns="http://www.w3.org/2000/svg" id="Layer_1" data-name="Layer 1" viewBox="0 0 300 80">
  <defs>
    <style>
      .cls-1 {
        fill: #427cbf;
      }

      .cls-2 {
        fill: #fff;
      }

      .cls-3 {
        fill: #f1c319;
      }
    </style>
  </defs>
  <g id="Layer_1-2" data-name="Layer 1-2">
    <g>
      <path class="cls-2" d="M42.1,48.06h18.81c1.15,0,2.08-.94,2.08-2.11s-.93-2.1-2.08-2.1h-11.36c-5.41,0-9.68-4.22-9.68-9.7s4.39-9.92,9.8-9.92h18.75v7.64h-18.75c-1.24,0-2.25,1.02-2.25,2.28s.92,2.19,2.17,2.19h11.39c5.29-.01,9.57,4.33,9.57,9.67s-4.28,9.69-9.57,9.69h-18.88v-7.65Z"/>
      <polygon class="cls-2" points="107.3 24.31 107.3 35.02 128.09 55.74 135.9 55.74 135.9 24.31 128.17 24.34 128.17 45.12 107.3 24.31"/>
      <polygon class="cls-2" points="260.13 24.32 235.97 24.31 243.12 31.43 243.12 55.67 250.7 55.67 250.7 31.87 260.13 31.87 260.13 24.32"/>
      <polyline class="cls-2" points="211.54 34.97 220.92 44.31 230.82 44.33 230.82 55.71 238.59 55.71 238.59 31.88 231.02 24.32 231.02 36.12 223.38 36.12 211.55 24.31 211.55 35.01"/>
      <path class="cls-2" d="M199.94,55.71v-2.1c-2.11,1.3-5.67,2.44-8.46,2.44-8.86,0-16.05-7.18-16.05-16.04s7.18-16.05,16.05-16.05c6.47,0,11.92,3.84,14.45,9.36h-9.29c-1.24-.96-3.06-1.82-5.18-1.82-4.84,0-8.51,3.97-8.51,8.51,0,4.81,3.94,8.5,8.48,8.5,3.64,0,5.95-2.26,6.86-3.54h-.23s-4.2,0-4.2,0v-6.8h13.67v17.56h-7.59,0Z"/>
      <polygon class="cls-1" points="114.88 47.58 107.31 40.04 107.31 55.7 114.88 55.7 114.88 47.58"/>
      <polygon class="cls-2" points="172.65 31.84 165.09 24.31 165.09 55.7 172.65 55.7 172.65 31.84"/>
      <path class="cls-2" d="M103.93,36.67v3.5c0,8.72-7.07,15.78-15.78,15.78s-15.79-7.07-15.79-15.78v-15.89l7.57,7.51v8.37c0,4.54,3.68,8.22,8.22,8.22s8.22-3.68,8.22-8.22v-11.05s7.56,7.55,7.56,7.55Z"/>
      <polygon class="cls-2" points="147.71 48.16 147.71 31.86 140.15 24.33 140.15 55.7 161.82 55.71 161.82 48.16 147.71 48.16"/>
      <polygon class="cls-3" points="211.6 39.98 211.6 55.7 219.37 55.7 219.37 47.74 211.6 39.98"/>
    </g>
  </g>
</svg>