<?xml version="1.0" encoding="utf-8"?>
<svg xmlns="http://www.w3.org/2000/svg" id="Layer_1" data-name="Layer 1" viewBox="0 0 300 80">
  <defs>
    <style>
      .cls-1 {
        fill: #fff;
      }
    </style>
  </defs>
  <g id="Ebene_1" data-name="Ebene 1">
    <g>
      <path class="cls-1" d="M59.45,33.43h2.71v-.3c0-1.83-.42-2.94-1.37-3.67-1.41-1.11-3.51-1.41-9.74-1.41-4.73,0-7.06.3-8.59,1.07-1.34.65-2.06,2.18-2.06,4.28,0,1.49.38,2.79,1.03,3.47.92.96,2.44,1.34,5.58,1.37,6.87.05,10.64.16,11.3.34,1.22.34,1.64,1.03,1.64,2.67,0,2.71-.99,3.09-7.87,3.09-5,0-7.26-.23-8.21-.84-.8-.46-.96-.96-.96-2.79v-.46h-2.79v.46c0,2.75.46,3.86,1.87,4.77,1.42.91,3.44,1.15,9.39,1.15,5.35,0,7.34-.19,8.94-.84,1.72-.69,2.48-2.1,2.48-4.66,0-2.29-.61-3.55-2.03-4.28-1.49-.77-2.56-.88-9.36-.92-4.92-.04-6.11-.08-6.84-.34-.92-.34-1.34-1.03-1.34-2.22,0-2.6,1.34-3.06,8.71-3.06,6.23,0,7.49.46,7.49,2.67v.42h0Z"/>
      <path class="cls-1" d="M68.12,30.61h4.32l-.19,9.05v.84c0,2.56.34,3.55,1.49,4.62,1.26,1.11,3.13,1.53,6.84,1.53,3.44,0,5.42-.58,6.49-1.87.77-.96.92-1.91.92-5.5v-.73h-2.44v.61c0,2.6-.04,3.13-.38,3.75-.61,1.03-1.87,1.45-4.39,1.45-4.89,0-5.84-.77-5.77-4.7l.15-9.05h12.45v-2.29h-12.41l.08-4.01h-2.71l-.08,4.01h-4.35v2.29h0Z"/>
      <path class="cls-1" d="M116.25,28.31h-2.71v10.62c0,1.64-.42,2.82-1.34,3.67-1.45,1.26-3.4,1.72-7.56,1.72-3.94,0-5.27-.27-6.38-1.26-.73-.65-1.03-1.64-1.03-3.51v-11.23h-2.71v11.38c0,2.94.53,4.47,1.87,5.58,1.49,1.22,3.28,1.61,7.49,1.61,6.61,0,8.48-.8,9.66-4.09v3.59h2.71v-18.07h0Z"/>
      <path class="cls-1" d="M146.99,37.33c0-3.86-.65-6.11-2.22-7.49-1.49-1.3-4.13-1.79-9.36-1.79-5.77,0-7.94.68-9.05,2.94v-10.32h-2.71v25.7h2.71v-2.67c1.11,2.22,3.28,2.94,9.05,2.94,5.23,0,7.87-.49,9.36-1.8,1.56-1.37,2.22-3.63,2.22-7.53h0ZM144.12,37.33c0,6.15-1.15,7.03-8.94,7.03-4.28,0-6.3-.34-7.34-1.22-1.07-.88-1.53-2.71-1.53-5.88,0-2.44.38-4.24,1.03-5.2.99-1.3,2.87-1.72,7.87-1.72,7.75,0,8.9.92,8.9,6.99h0Z"/>
      <path class="cls-1" d="M174.88,46.38v-11.15c0-3.32-.38-4.54-1.72-5.61-1.6-1.26-3.59-1.56-9.66-1.56-4.54,0-6.38.27-7.79,1.07-1.37.8-1.95,2.06-1.99,4.43h2.9c.04-2.79.96-3.21,6.95-3.21,7.91,0,8.59.46,8.59,5.69v1.91c-.96-2.1-2.37-2.48-8.94-2.48-8.71,0-10.35.88-10.35,5.54,0,2.22.49,3.51,1.72,4.43,1.3.99,3.06,1.22,9.09,1.22s7.56-.46,8.48-2.71v2.44h2.71ZM172.2,40.88c0,1.53-.61,2.41-2.06,2.94-1.03.38-2.9.53-6.38.53s-5.35-.11-6.27-.38c-1.18-.34-1.83-1.37-1.83-2.87,0-1.15.42-2.14,1.07-2.52.96-.61,3.06-.84,7.3-.84,3.67,0,5.77.19,6.61.61,1,.43,1.62,1.44,1.56,2.52h0Z"/>
      <path class="cls-1" d="M43.56,55.22h.58c-.06-1.57-.35-1.83-2.01-1.83s-1.93.32-1.93,1.8c0,1.25.29,1.6,1.37,1.68l.67.06c1.15.09,1.31.22,1.31,1.12,0,1.24-.1,1.35-1.33,1.35-1.34,0-1.52-.14-1.52-1.1v-.38h-.58v.5c0,1.25.45,1.6,2.03,1.6s2.03-.38,2.03-1.88c0-.87-.14-1.29-.49-1.51-.26-.17-.58-.23-1.49-.3-1.24-.09-1.37-.21-1.37-1.22s.17-1.09,1.29-1.09,1.44.19,1.44,1.05v.15h0ZM47.12,58.42c0,.91-.11,1.09-.59,1.09-.39,0-.53-.14-.53-.55v-3.07h1.49v-.52h-1.49v-1.05h-.58v1.05h-.48v.52h.48v3.19c0,.7.26.94,1.07.94.28.04.56-.03.78-.19.26-.22.36-.58.38-1.41h-.53ZM51.66,55.37h-.58v2.9c0,.84-.38,1.24-1.15,1.24-.66,0-.93-.29-.93-1.03v-3.1h-.58v3.24c0,1.01.39,1.41,1.37,1.41.52.08,1.04-.19,1.26-.66h.02v.59h.58v-4.58h0ZM54.63,58.42c0,.91-.11,1.09-.59,1.09-.39,0-.53-.14-.53-.55v-3.07h1.49v-.52h-1.49v-1.05h-.58v1.05h-.48v.52h.48v3.19c0,.7.26.94,1.07.94.28.04.56-.03.78-.19.26-.22.36-.58.38-1.41h-.53,0ZM57.89,58.42c0,.91-.1,1.09-.59,1.09-.39,0-.53-.14-.53-.55v-3.07h1.49v-.52h-1.49v-1.05h-.58v1.05h-.48v.52h.48v3.19c0,.7.26.94,1.07.94.28.04.56-.03.78-.19.26-.22.36-.58.38-1.41h-.53,0ZM59.32,60.37c0,.94.42,1.28,1.52,1.28,1.32,0,1.74-.42,1.74-1.74v-4.53h-.58v.62h-.02c-.19-.48-.68-.77-1.19-.69-.74,0-1.19.22-1.41.72-.17.48-.24.99-.19,1.5-.05.57.04,1.14.26,1.66.29.43.81.67,1.34.59.5.08,1-.19,1.2-.66h.02v.67c0,1.05-.19,1.27-1.13,1.27-.75,0-.97-.16-.98-.7h-.58ZM60.85,55.88c.91,0,1.15.35,1.15,1.67s-.24,1.66-1.15,1.66c-.86,0-1.03-.28-1.03-1.59,0-1.49.16-1.74,1.03-1.74h0ZM66.28,59.96h.53v-3.35c0-.98-.39-1.29-1.6-1.29-1.13,0-1.56.3-1.56,1.09v.24h.58c0-.7.14-.82.97-.82.87,0,1.03.14,1.03.91v.84h-.02c-.22-.33-.48-.42-1.19-.42-1.15,0-1.53.35-1.53,1.42s.39,1.45,1.48,1.45c.49.07.98-.11,1.32-.47v.4h0ZM65.15,57.66c.81,0,1.12.25,1.12.89s-.28.89-1.11.89-1.1-.22-1.1-.87.29-.92,1.09-.92h0ZM67.83,59.96h.58v-3.19c0-.64.27-.94.89-.94s.74.16.74,1.07h.53v-.37c0-.88-.3-1.23-1.06-1.23-.46-.07-.9.19-1.07.62h-.02v-.56h-.58s0,4.58,0,4.58ZM73.35,58.42c0,.91-.1,1.09-.59,1.09-.39,0-.53-.14-.53-.55v-3.07h1.49v-.52h-1.49v-1.05h-.58v1.05h-.48v.52h.48v3.19c0,.7.26.94,1.07.94.28.04.56-.03.78-.19.26-.22.36-.58.38-1.41h-.53,0ZM77.93,57.8v-.69c0-1.4-.35-1.8-1.61-1.8-1.4,0-1.71.43-1.71,2.42s.29,2.29,1.72,2.29c1.27,0,1.6-.26,1.6-1.27v-.17h-.58c-.02.82-.13.92-.99.92-.94,0-1.11-.2-1.11-1.29v-.42h2.68,0ZM75.25,57.23c0-.66.03-.88.14-1.06.14-.23.42-.34.92-.34s.77.11.91.34c.11.18.14.38.15,1.06h-2.11ZM78.94,59.96h.58v-3.19c0-.64.27-.94.89-.94s.74.16.74,1.07h.53v-.37c0-.88-.3-1.23-1.06-1.23-.46-.07-.9.19-1.07.62h-.02v-.56h-.58v4.58ZM85.59,59.96h.63v-6.5h-.63v6.5ZM87.37,59.96h.58v-2.9c0-.84.37-1.24,1.15-1.24.66,0,.93.29.93,1.03v3.1h.58v-3.24c0-1.01-.39-1.41-1.37-1.41-.52-.08-1.03.19-1.25.66h-.02v-.59h-.58v4.58h0ZM94.38,59.96h.58v-6.5h-.58v2.5h-.02c-.25-.46-.76-.72-1.28-.64-1.19,0-1.55.55-1.55,2.37s.38,2.35,1.61,2.35c.69,0,.97-.15,1.22-.64h.02v.58h0ZM93.23,55.88c.92,0,1.15.34,1.15,1.65,0,1.62-.18,1.91-1.14,1.91-.9,0-1.07-.28-1.07-1.72,0-1.59.16-1.85,1.06-1.85h0ZM99.25,55.37h-.58v2.9c0,.84-.38,1.24-1.15,1.24-.66,0-.93-.29-.93-1.03v-3.1h-.58v3.24c0,1.01.39,1.41,1.37,1.41.52.08,1.04-.19,1.26-.66h.02v.59h.58v-4.58h0ZM100.21,58.54c.03,1.24.29,1.48,1.52,1.48,1.41,0,1.74-.27,1.74-1.45,0-.98-.17-1.11-1.58-1.2-1-.07-1.06-.11-1.06-.75,0-.71.1-.79.98-.79s1.01.07,1.03.74h.58c-.02-1.03-.31-1.26-1.59-1.26s-1.58.25-1.58,1.31c0,1,.21,1.19,1.47,1.28,1.12.07,1.16.1,1.16.68,0,.79-.16.93-1.06.93-.84,0-1.03-.16-1.03-.83,0-.05,0-.09,0-.14h-.59ZM106.39,58.42c0,.91-.11,1.09-.59,1.09-.39,0-.53-.14-.53-.55v-3.07h1.49v-.52h-1.49v-1.05h-.58v1.05h-.48v.52h.48v3.19c0,.7.26.94,1.07.94.28.04.56-.03.78-.19.26-.22.36-.58.38-1.41h-.53ZM107.71,59.96h.58v-3.19c0-.64.27-.94.89-.94s.74.16.74,1.07h.53v-.37c0-.88-.3-1.23-1.06-1.23-.46-.07-.9.19-1.07.62h-.02v-.56h-.58v4.58h0ZM111.29,59.96h.58v-4.58h-.58v4.58ZM111.29,54.75h.58v-.76h-.58v.76ZM116.21,57.8v-.69c0-1.4-.35-1.8-1.61-1.8-1.4,0-1.71.43-1.71,2.42s.29,2.29,1.72,2.29c1.26,0,1.6-.26,1.6-1.27v-.17h-.58c-.02.82-.13.92-.99.92-.94,0-1.11-.2-1.11-1.29v-.42h2.68ZM113.54,57.23c0-.66.03-.88.14-1.06.14-.23.42-.34.92-.34s.77.11.91.34c.11.18.14.38.15,1.06h-2.11ZM117.25,59.96h.58v-.58h.02c.24.49.53.64,1.2.64,1.26,0,1.63-.54,1.63-2.36s-.36-2.36-1.55-2.36c-.52-.07-1.03.19-1.27.64h-.02v-2.5h-.58v6.5h0ZM118.98,55.88c.9,0,1.07.28,1.07,1.72,0,1.6-.15,1.85-1.09,1.85s-1.12-.3-1.12-1.86c0-1.35.23-1.71,1.14-1.71h0ZM124.33,59.96h.53v-3.35c0-.98-.39-1.29-1.6-1.29-1.13,0-1.56.3-1.56,1.09v.24h.58c0-.7.14-.82.97-.82.87,0,1.03.14,1.03.91v.84h-.02c-.22-.33-.48-.42-1.19-.42-1.15,0-1.53.35-1.53,1.42s.39,1.45,1.48,1.45c.49.07.98-.11,1.32-.47v.4h0ZM123.21,57.66c.81,0,1.12.25,1.12.89s-.29.89-1.11.89-1.1-.22-1.1-.87.29-.92,1.09-.92h0ZM127.8,58.42c0,.91-.11,1.09-.59,1.09-.39,0-.53-.14-.53-.55v-3.07h1.49v-.52h-1.49v-1.05h-.58v1.05h-.48v.52h.48v3.19c0,.7.26.94,1.07.94.28.04.56-.03.78-.19.26-.22.36-.58.38-1.41h-.53ZM131.06,58.42c0,.91-.11,1.09-.59,1.09-.39,0-.53-.14-.53-.55v-3.07h1.49v-.52h-1.49v-1.05h-.58v1.05h-.48v.52h.48v3.19c0,.7.26.94,1.07.94.28.04.55-.03.78-.19.26-.22.36-.58.38-1.41h-.53ZM135.64,57.8v-.69c0-1.4-.35-1.8-1.61-1.8-1.4,0-1.71.43-1.71,2.42s.29,2.29,1.72,2.29c1.26,0,1.6-.26,1.6-1.27v-.17h-.58c-.02.82-.13.92-.99.92-.94,0-1.11-.2-1.11-1.29v-.42h2.68ZM132.96,57.23c0-.66.03-.88.14-1.06.14-.23.42-.34.92-.34s.77.11.91.34c.11.18.14.38.15,1.06h-2.11ZM136.65,59.96h.58v-3.19c0-.64.27-.94.89-.94s.74.16.74,1.07h.53v-.37c0-.88-.3-1.23-1.06-1.23-.46-.07-.9.19-1.07.62h-.02v-.56h-.58v4.58ZM140.24,59.96h.58v-4.58h-.58v4.58ZM140.24,54.75h.58v-.76h-.58v.76ZM145.16,57.8v-.69c0-1.4-.35-1.8-1.61-1.8-1.4,0-1.71.43-1.71,2.42s.28,2.29,1.72,2.29c1.26,0,1.6-.26,1.6-1.27v-.17h-.58c-.02.82-.13.92-.99.92-.94,0-1.11-.2-1.11-1.29v-.42h2.68ZM142.48,57.23c-.05-.36,0-.73.14-1.06.14-.23.42-.34.92-.34s.77.11.91.34c.11.18.14.38.15,1.06h-2.11ZM146.17,59.96h.58v-2.9c0-.84.37-1.24,1.15-1.24.66,0,.93.29.93,1.03v3.1h.58v-3.24c0-1.01-.39-1.41-1.37-1.41-.52-.08-1.03.19-1.25.66h-.02v-.59h-.58v4.58h0ZM155.59,57.38h1.71v.64c0,.76-.1,1.08-.36,1.24-.18.1-.37.13-1.06.13-1.1,0-1.45-.09-1.63-.41-.16-.39-.22-.8-.18-1.22v-2.12c0-1.45.19-1.64,1.7-1.64,1.33,0,1.53.16,1.53,1.13v.23h.63v-.65c.06-.48-.19-.94-.63-1.14-.48-.17-1-.24-1.51-.19-.98,0-1.49.1-1.81.38-.38.31-.54.86-.54,1.84v2.18c0,.86.13,1.39.39,1.72.32.38.83.52,2,.52.93,0,1.35-.09,1.64-.32.31-.27.46-.73.46-1.49v-1.45h-2.34v.62h0ZM158.91,59.96h.58v-2.62c0-1.01.36-1.45,1.18-1.45.64,0,.9.25.9.91v3.17h.58v-2.89c0-.85.32-1.19,1.1-1.19.71,0,.97.3.97,1.11v2.96h.58v-3.29c0-.92-.45-1.35-1.38-1.35-.57-.06-1.11.24-1.37.74-.24-.55-.58-.74-1.3-.74-.54-.05-1.04.25-1.25.75h-.02v-.68h-.58v4.58h0ZM165.87,59.96h.58v-.58h.02c.24.49.53.64,1.2.64,1.26,0,1.63-.54,1.63-2.36s-.36-2.36-1.55-2.36c-.52-.07-1.03.19-1.27.64h-.02v-2.5h-.58v6.5h0ZM167.59,55.88c.9,0,1.07.28,1.07,1.72,0,1.6-.15,1.85-1.09,1.85s-1.12-.3-1.12-1.86c0-1.35.23-1.71,1.14-1.71h0ZM170.3,59.96h.63v-3.03h3.17v3.03h.63v-6.5h-.64v2.85h-3.16v-2.85h-.63v6.5h0Z"/>
      <polygon class="cls-1" points="197.86 41.77 199.31 46.64 195.12 43.76 190.93 46.64 192.38 41.77 188.35 38.67 193.43 38.55 195.12 33.75 196.82 38.55 201.9 38.67 197.86 41.77"/>
      <polygon class="cls-1" points="203.06 28.13 204.11 31.67 201.07 29.58 198.02 31.67 199.07 28.13 196.14 25.88 199.84 25.78 201.07 22.3 202.3 25.78 205.99 25.88 203.06 28.13"/>
      <path class="cls-1" d="M248.02,24.51c-4.89,0-10.51,1.06-16.18,2.91,8.05.1,10.97.83,12.97,2.45,1.45,1.14,2.09,2.87,2.09,5.74v.48h-4.12v-.66c0-3.47-1.92-4.19-11.39-4.19-5.84,0-9.18.19-11.05.96,0,0-.01,0-.02,0-.27.11-.51.23-.73.38-.14.1-.14.1,0,0-1.11.72-1.44,1.81-1.44,3.44,0,1.85.64,2.93,2.03,3.47,1.1.42,2.9.23,10.39.29,10.34.06,11.97.48,14.23,1.68,2.15,1.14,3.08,3.11,3.08,6.7v.1c2.34-1.67,4.46-3.44,6.3-5.28,4.15-4.15,6.16-7.99,6.16-11.08,0-4.5-4.25-7.41-12.32-7.41h0ZM241.03,44.17c-1.01-.28-6.74-.46-17.19-.54-4.76-.06-7.08-.66-8.48-2.15-.99-1.07-1.57-3.11-1.57-5.44v-.08c-3.37,2.17-6.4,4.55-8.89,7.04-10.21,10.21-7.44,18.48,6.16,18.48,6.13,0,13.39-1.67,20.47-4.44-.33,0-.67,0-1.02,0-8.33,0-11.6-.51-13.75-1.71-.04,0-.73-2.49-.73-2.49l2.19-1.71c.25.29.54.54.85.76,1.45.96,4.88,1.32,12.48,1.32,5.04,0,8.01-.14,9.72-.76,0,0,.01,0,.02,0,.51-.19.91-.41,1.21-.69.8-.73,1.01-1.8,1.01-3.38,0-2.57-.64-3.65-2.5-4.18h0ZM215.05,52.49l1.73,5.8-4.96-3.43-4.96,3.43,1.72-5.78-4.8-3.67,6.02-.15,2.02-5.63,2.02,5.64,6.02.13s-4.8,3.65-4.8,3.65ZM215.36,20.77l-2.5-.06-.83-2.35-.83,2.35-2.49.06,1.98,1.52-.71,2.39,2.05-1.41,2.06,1.41-.71-2.39,1.98-1.52h0ZM205.99,25.88l-3.69-.1-1.23-3.48-1.23,3.48-3.7.1,2.93,2.25-1.05,3.54,3.05-2.09,3.04,2.09-1.05-3.54,2.93-2.25h0ZM201.9,38.67l-5.08-.13-1.7-4.79-1.69,4.79-5.08.13,4.04,3.09-1.45,4.87,4.19-2.88,4.19,2.88-1.45-4.87,4.04-3.09h0Z"/>
      <g>
        <polygon class="cls-1" points="213.38 22.29 214.09 24.68 212.03 23.27 209.98 24.68 210.69 22.29 208.71 20.77 211.2 20.7 212.03 18.36 212.86 20.7 215.36 20.77 213.38 22.29"/>
        <path class="cls-1" d="M241.03,44.17c-1.01-.28-6.74-.46-17.19-.54-4.76-.06-7.08-.66-8.48-2.15-.99-1.07-1.57-3.11-1.57-5.44v-.08c-3.37,2.17-6.4,4.55-8.89,7.04-10.21,10.21-7.44,18.48,6.16,18.48,6.13,0,13.39-1.67,20.47-4.44-.33,0-.67,0-1.02,0-8.33,0-11.6-.51-13.75-1.71-.04,0-.73-2.49-.73-2.49l2.19-1.71c.25.29.54.54.85.76,1.45.96,4.88,1.32,12.48,1.32,5.04,0,8.01-.14,9.72-.76,0,0,.01,0,.02,0,.41-.23.81-.46,1.21-.69.8-.73,1.01-1.8,1.01-3.38,0-2.57-.64-3.65-2.5-4.18h0ZM215.05,52.49l1.73,5.8-4.96-3.43-4.96,3.43,1.72-5.78-4.8-3.67,6.02-.15,2.02-5.63,2.02,5.64,6.02.13s-4.8,3.65-4.8,3.65ZM248.02,24.51c-4.89,0-10.51,1.06-16.18,2.91,8.05.1,10.97.83,12.97,2.45,1.45,1.14,2.09,2.87,2.09,5.74v.48h-4.12v-.66c0-3.47-1.92-4.19-11.39-4.19-5.84,0-9.18.19-11.05.96,0,0-.01,0-.02,0-.24.12-.48.25-.73.38-.16.09-.16.09,0,0-1.11.72-1.44,1.81-1.44,3.44,0,1.85.64,2.93,2.03,3.47,1.1.42,2.9.23,10.39.29,10.34.06,11.97.48,14.23,1.68,2.15,1.14,3.08,3.11,3.08,6.7v.1c2.34-1.67,4.46-3.44,6.3-5.28,4.15-4.15,6.16-7.99,6.16-11.08,0-4.5-4.25-7.41-12.32-7.41h0Z"/>
      </g>
    </g>
  </g>
</svg>