<?xml version="1.0" encoding="utf-8"?>
<svg xmlns="http://www.w3.org/2000/svg" id="Layer_1" data-name="Layer 1" viewBox="0 0 300 80">
  <defs>
    <style>
      .cls-1, .cls-2 {
        fill: #fff;
      }

      .cls-2 {
        fill-rule: evenodd;
      }

      .cls-3 {
        fill: none;
      }
    </style>
  </defs>
  <g id="Ebene_1" data-name="Ebene 1">
    <g>
      <path class="cls-2" d="M128.07,35.3l2.05,6.08h-4.22l2.17-6.08M124.15,46.16l1.23-3.28h5.25l1.23,3.28h1.71l-4.58-12.58h-1.68l-4.77,12.58h1.62Z"/>
      <path class="cls-1" d="M143.13,36.81c-.17-2.25-1.8-3.43-3.98-3.51-3.8-.12-5.02,3.47-5.02,6.55,0,3.52,1.33,6.55,4.67,6.55,2.21,0,4.12-1.4,4.28-3.51h-1.65c-.19,1.34-1.29,2-2.5,2-2.46,0-3.17-2.46-3.17-5.05,0-2.21.52-5.05,3.31-5.05,1.16,0,2.32.8,2.4,2h1.65"/>
      <path class="cls-1" d="M153.13,36.81c-.17-2.25-1.8-3.43-3.98-3.51-3.8-.12-5.02,3.47-5.02,6.55,0,3.52,1.33,6.55,4.67,6.55,2.21,0,4.12-1.4,4.28-3.51h-1.65c-.19,1.34-1.29,2-2.5,2-2.46,0-3.17-2.46-3.17-5.05,0-2.21.52-5.05,3.31-5.05,1.16,0,2.32.8,2.4,2h1.65"/>
      <path class="cls-1" d="M163.9,33.57h-1.57v8.02c-.05,2.16-1.21,3.33-3,3.33s-2.95-1.17-3-3.33v-8.02h-1.57v7.6c-.05,3.24,1.49,5.25,4.57,5.25s4.61-2,4.57-5.25v-7.6"/>
      <polyline class="cls-1" points="176.76 46.16 178.33 46.16 178.33 33.57 175.71 33.57 172.51 43.95 172.48 43.95 169.22 33.57 166.41 33.57 166.41 46.16 167.98 46.16 167.98 34.83 168.01 34.83 171.63 46.16 173.11 46.16 176.73 34.83 176.76 34.83 176.76 46.16"/>
      <path class="cls-1" d="M189.97,33.57h-1.57v8.02c-.05,2.16-1.21,3.33-3,3.33s-2.95-1.17-3-3.33v-8.02h-1.57v7.6c-.05,3.24,1.49,5.25,4.57,5.25s4.61-2,4.57-5.25v-7.6"/>
      <polyline class="cls-1" points="199.33 46.16 199.33 44.66 194.06 44.66 194.06 33.57 192.49 33.57 192.49 46.16 199.33 46.16"/>
      <path class="cls-2" d="M205.74,35.3l2.05,6.08h-4.22l2.17-6.08M201.82,46.16l1.23-3.28h5.25l1.23,3.28h1.71l-4.58-12.58h-1.68l-4.77,12.58h1.62,0Z"/>
      <polyline class="cls-1" points="213.76 46.16 215.33 46.16 215.33 35.07 219.13 35.07 219.13 33.57 209.97 33.57 209.97 35.07 213.76 35.07 213.76 46.16"/>
      <path class="cls-2" d="M221.43,39.87c0-2.68.66-5.05,3.53-5.05s3.53,2.37,3.53,5.05-.66,5.05-3.53,5.05-3.53-2.44-3.53-5.05M219.78,39.87c0,3.68,1.65,6.55,5.17,6.55s5.17-2.88,5.17-6.55-1.65-6.55-5.17-6.55-5.17,2.88-5.17,6.55Z"/>
      <path class="cls-2" d="M235.7,40.47c.63.05,1.25,0,1.71.57.52.63.52,1.66.64,2.79.08.75.27,1.57.41,2.32h1.68c-.41-1.19-.53-2.52-.7-3.78-.18-1.41-.36-2.21-1.72-2.58v-.03c1.32-.35,2.13-1.51,2.13-3.04,0-2.49-1.96-3.15-3.86-3.15h-4.04v12.58h1.57v-5.68h2.2M233.48,35.07h2.59c1.74.09,2.13.96,2.13,1.95s-.39,1.87-2.13,1.95h-2.59v-3.9Z"/>
      <polyline class="cls-1" points="248.99 46.16 248.99 44.66 243.32 44.66 243.32 40.49 248.59 40.49 248.59 38.99 243.32 38.99 243.32 35.07 248.86 35.07 248.86 33.57 241.76 33.57 241.76 46.16 248.99 46.16"/>
      <polyline class="cls-1" points="258.95 33.57 258.95 43.98 258.91 43.98 253.39 33.57 251.24 33.57 251.24 46.16 252.64 46.16 252.64 35.47 252.67 35.47 258.4 46.16 260.34 46.16 260.34 33.57 258.95 33.57"/>
      <path class="cls-2" d="M40.12,46.01h4.78l.5-2.02h3.61l.49,2.02h5.16l-4.04-12.58h-6.46l-4.03,12.58M46.15,40.92l1.1-4.74h.03l.99,4.74h-2.13Z"/>
      <rect class="cls-1" x="55.21" y="33.42" width="4.99" height="12.58"/>
      <polyline class="cls-1" points="74.38 46.01 78.6 46.01 78.6 33.42 71.68 33.42 70.3 40.92 70.27 40.92 68.89 33.42 61.97 33.42 61.97 46.01 66.19 46.01 66.19 37.01 66.22 37.01 68 46.01 72.57 46.01 74.35 37.01 74.38 37.01 74.38 46.01"/>
      <line class="cls-3" x1="114.02" y1="33.56" x2="113.88" y2="33.42"/>
      <g>
        <polygon class="cls-1" points="99.59 54.91 102.53 57.87 101.33 59.08 82.19 40 92.05 30.17 92.05 47.53 94.96 50.28 95.33 49.9 92.58 47.3 92.58 30.05 95.28 32.68 113.14 32.7 113.88 33.42 96.27 33.43 95.91 33.43 95.91 33.43 95.9 33.43 95.9 51.22 98.65 53.97 99.03 53.6 96.42 51 96.42 33.92 98.97 36.39 116.86 36.39 117.52 37.05 99.56 37.05 99.64 37.13 99.6 37.13 99.59 54.8 99.59 54.91"/>
        <polygon class="cls-1" points="120.44 40.03 102.91 57.5 100.12 54.69 100.13 37.59 102.71 40.03 120.44 40.03"/>
        <polyline class="cls-1" points="112.99 32.54 113.01 32.55 113.15 32.7"/>
        <polygon class="cls-1" points="110.17 29.73 92.48 29.73 101.33 20.92 110.17 29.73"/>
      </g>
      <polyline class="cls-1" points="120.36 39.88 120.48 40 120.45 40.03"/>
      <line class="cls-3" x1="117.67" y1="37.2" x2="117.52" y2="37.05"/>
      <g>
        <path class="cls-1" d="M217.6,51.05h4.15v.82h-3.17v2.17h2.98v.81h-2.98v3.17h-.98v-6.96h0Z"/>
        <path class="cls-1" d="M223.08,54.16c0-.3-.02-.63-.05-.98h.92l.02.94c.08-.3.23-.53.44-.68.22-.15.45-.24.71-.28.13-.02.26-.03.39-.03.02,0,.07,0,.14.01h.11v.88s-.1-.02-.18-.04c-.05,0-.13-.01-.26-.01-.26,0-.47.03-.65.11-.18.07-.31.17-.41.31s-.17.28-.21.46-.06.37-.06.6v2.58h-.92v-3.86h0Z"/>
        <path class="cls-1" d="M230.02,58.01c-.06-.2-.09-.45-.09-.73-.1.19-.22.34-.35.46-.13.12-.26.21-.4.27-.14.06-.26.1-.39.12-.12.02-.24.03-.37.03-.53,0-.95-.14-1.25-.4s-.45-.61-.45-1.03c0-.25.06-.5.18-.75.12-.26.35-.48.66-.66.23-.13.5-.22.79-.26.3-.04.59-.06.88-.06h.29c.1,0,.22.01.36.02,0-.34,0-.58-.02-.72-.02-.14-.07-.26-.15-.35-.09-.11-.2-.19-.37-.24-.16-.05-.32-.08-.47-.08-.21,0-.39.03-.52.09-.14.06-.23.14-.29.23s-.1.18-.12.26-.03.16-.04.24h-.91v-.03c.02-.18.06-.34.1-.47.04-.14.12-.27.24-.41.16-.19.39-.32.68-.4.28-.08.58-.12.88-.12.38,0,.73.06,1.05.18.32.12.54.3.66.53.07.13.11.25.14.36.02.11.03.24.03.38l-.04,2.31c0,.1,0,.28.02.53.01.25.03.48.06.69h-.82v.02ZM229.39,55.63c-.16,0-.33,0-.5.02s-.36.05-.55.11-.36.16-.49.3c-.14.14-.2.32-.2.55,0,.09.02.18.05.27s.09.18.16.27c.07.09.18.16.31.21.13.06.29.08.49.08.47,0,.81-.18,1.03-.52.1-.15.16-.31.18-.47.02-.16.04-.43.05-.81-.16-.02-.33-.03-.52-.03h0Z"/>
        <path class="cls-1" d="M232.65,53.73v-.56s.9,0,.9,0v.78c.06-.09.11-.18.17-.26.06-.09.15-.18.27-.27s.27-.18.47-.24c.19-.06.41-.1.66-.1.15,0,.32.02.5.06.19.04.38.11.57.23s.36.28.49.5c.13.22.19.5.19.85v3.29h-.92v-3.07c0-.19-.02-.35-.05-.48s-.1-.25-.21-.35c-.23-.22-.51-.33-.86-.33s-.65.12-.9.37-.37.61-.37,1.07v2.79h-.91v-4.28h0Z"/>
        <path class="cls-1" d="M238.68,51h.9v4.15l1.82-1.98h1.19l-2.04,2.05,2.17,2.79h-1.19l-1.94-2.62v2.62h-.9v-7.01h0Z"/>
        <path class="cls-1" d="M246.64,51.73c-.2-.01-.38-.02-.53-.02-.18,0-.31.02-.41.06-.1.04-.18.09-.22.16s-.07.14-.08.21c-.01.07-.02.16-.02.28v.76h1.13v.66h-1.13v4.19h-.9v-4.19h-.95v-.66h.95v-.55c0-.33.01-.58.04-.74.02-.16.08-.29.16-.42.11-.16.27-.29.47-.39.2-.09.45-.14.75-.14.11,0,.24,0,.37.02.13.01.26.03.37.05v.73h-.01Z"/>
        <path class="cls-1" d="M248.65,53.18v3.11c0,.14.01.27.03.39s.07.23.14.33c.07.1.18.19.32.25s.32.1.54.1c.24,0,.45-.05.66-.13.2-.09.36-.22.48-.41.09-.13.15-.27.17-.41.02-.15.03-.31.03-.49v-2.74h.94v4.19c0,.13.01.35.02.66h-.95l-.02-.83c-.06.11-.12.21-.19.31s-.16.19-.27.27c-.11.09-.26.16-.44.22-.18.06-.39.08-.64.08-.58,0-1.02-.15-1.31-.45s-.44-.7-.44-1.19v-3.25h.92,0Z"/>
        <path class="cls-1" d="M253.89,54.16c0-.3-.02-.63-.05-.98h.92l.02.94c.08-.3.23-.53.44-.68.22-.15.45-.24.71-.28.13-.02.26-.03.39-.03.02,0,.07,0,.14.01h.11v.88s-.1-.02-.18-.04c-.05,0-.13-.01-.26-.01-.26,0-.47.03-.65.11-.18.07-.31.17-.41.31s-.17.28-.21.46-.06.37-.06.6v2.58h-.92v-3.86h0Z"/>
        <path class="cls-1" d="M257.51,53.15h.86v-1.01l.9-.29v1.3h1.08v.66h-1.08v2.9c0,.09,0,.16.02.23.01.07.03.14.07.2.04.06.1.12.2.16.09.04.22.06.36.06.08,0,.16,0,.24-.02.09-.01.15-.02.19-.03v.7c-.22.04-.47.06-.75.06-.43,0-.74-.07-.94-.23s-.29-.42-.29-.81v-3.23h-.86v-.66h0Z"/>
      </g>
    </g>
  </g>
</svg>