<?xml version="1.0" encoding="utf-8"?>
<svg xmlns="http://www.w3.org/2000/svg" id="Layer_1" data-name="Layer 1" viewBox="0 0 300 80">
  <defs>
    <style>
      .cls-1, .cls-2 {
        fill: #fff;
      }

      .cls-2 {
        fill-rule: evenodd;
      }
    </style>
  </defs>
  <g id="Ebene_1" data-name="Ebene 1">
    <g>
      <path class="cls-2" d="M128.09,35.3l2.05,6.08h-4.22l2.17-6.08M124.17,46.16l1.23-3.28h5.25l1.23,3.28h1.71l-4.58-12.58h-1.68l-4.77,12.58h1.62Z"/>
      <path class="cls-1" d="M143.14,36.81c-.17-2.25-1.8-3.43-3.98-3.51-3.79-.12-5.02,3.47-5.02,6.55,0,3.52,1.33,6.55,4.67,6.55,2.21,0,4.12-1.4,4.28-3.51h-1.64c-.19,1.34-1.29,2-2.5,2-2.46,0-3.17-2.46-3.17-5.05,0-2.21.52-5.05,3.31-5.05,1.16,0,2.32.8,2.4,2h1.64"/>
      <path class="cls-1" d="M153.14,36.81c-.17-2.25-1.8-3.43-3.98-3.51-3.79-.12-5.02,3.47-5.02,6.55,0,3.52,1.33,6.55,4.67,6.55,2.21,0,4.12-1.4,4.28-3.51h-1.64c-.19,1.34-1.29,2-2.5,2-2.46,0-3.17-2.46-3.17-5.05,0-2.21.52-5.05,3.31-5.05,1.16,0,2.32.8,2.4,2h1.64"/>
      <path class="cls-1" d="M163.91,33.58h-1.57v8.01c-.05,2.16-1.21,3.33-2.99,3.33s-2.95-1.17-2.99-3.33v-8.01h-1.57v7.6c-.05,3.24,1.49,5.25,4.57,5.25s4.61-2,4.57-5.25v-7.6"/>
      <polyline class="cls-1" points="176.77 46.16 178.34 46.16 178.34 33.58 175.72 33.58 172.52 43.95 172.48 43.95 169.22 33.58 166.42 33.58 166.42 46.16 167.99 46.16 167.99 34.83 168.02 34.83 171.64 46.16 173.11 46.16 176.74 34.83 176.77 34.83 176.77 46.16"/>
      <path class="cls-1" d="M189.97,33.58h-1.57v8.01c-.05,2.16-1.21,3.33-2.99,3.33s-2.95-1.17-2.99-3.33v-8.01h-1.57v7.6c-.05,3.24,1.49,5.25,4.57,5.25s4.61-2,4.57-5.25v-7.6"/>
      <polyline class="cls-1" points="199.33 46.16 199.33 44.66 194.06 44.66 194.06 33.58 192.49 33.58 192.49 46.16 199.33 46.16"/>
      <path class="cls-2" d="M205.74,35.3l2.05,6.08h-4.22l2.17-6.08M201.82,46.16l1.23-3.28h5.25l1.23,3.28h1.71l-4.58-12.58h-1.68l-4.77,12.58h1.62,0Z"/>
      <polyline class="cls-1" points="213.77 46.16 215.34 46.16 215.34 35.07 219.13 35.07 219.13 33.58 209.97 33.58 209.97 35.07 213.77 35.07 213.77 46.16"/>
      <path class="cls-2" d="M221.44,39.87c0-2.68.66-5.05,3.53-5.05s3.53,2.37,3.53,5.05-.66,5.05-3.53,5.05-3.53-2.44-3.53-5.05M219.79,39.87c0,3.68,1.64,6.55,5.17,6.55s5.17-2.88,5.17-6.55-1.64-6.55-5.17-6.55-5.17,2.88-5.17,6.55Z"/>
      <path class="cls-2" d="M235.7,40.48c.63.05,1.25,0,1.71.57.52.63.52,1.66.64,2.79.08.75.27,1.57.41,2.32h1.68c-.41-1.19-.53-2.52-.7-3.78-.18-1.41-.36-2.21-1.72-2.58v-.03c1.32-.35,2.13-1.51,2.13-3.03,0-2.49-1.96-3.15-3.86-3.15h-4.04v12.58h1.57v-5.68h2.2M233.48,35.07h2.59c1.74.09,2.13.96,2.13,1.95s-.39,1.87-2.13,1.95h-2.59v-3.9Z"/>
      <polyline class="cls-1" points="248.99 46.16 248.99 44.66 243.33 44.66 243.33 40.5 248.6 40.5 248.6 38.99 243.33 38.99 243.33 35.07 248.86 35.07 248.86 33.58 241.76 33.58 241.76 46.16 248.99 46.16"/>
      <polyline class="cls-1" points="258.95 33.58 258.95 43.98 258.91 43.98 253.39 33.58 251.25 33.58 251.25 46.16 252.64 46.16 252.64 35.48 252.67 35.48 258.4 46.16 260.34 46.16 260.34 33.58 258.95 33.58"/>
      <path class="cls-2" d="M233.03,54.97v2.41h1.63c.39,0,.71-.09.97-.28.26-.19.4-.5.41-.93-.01-.43-.15-.74-.41-.93-.26-.19-.58-.28-.97-.28h-1.63M234.57,58.22h-2.52v-7.07h2.52c.41,0,.79.06,1.13.18.34.12.62.31.83.58.21.27.32.63.32,1.08,0,.37-.12.69-.33.96s-.5.46-.86.56v.02c.45.08.81.29,1.04.64.24.34.36.74.36,1.19,0,.41-.13.77-.36,1.06-.23.29-.54.51-.92.65-.18.07-.38.11-.58.12s-.41.02-.63.01h0ZM233.03,51.99v2.13h1.21c.47.03.85-.03,1.14-.18s.44-.44.44-.89c0-.45-.15-.75-.44-.89s-.67-.2-1.14-.18c0,0-1.21,0-1.21,0Z"/>
      <path class="cls-2" d="M239.7,55.3h2.48c.01-.42-.08-.77-.28-1.04-.2-.27-.52-.41-.97-.42-.39.01-.69.15-.91.43-.22.27-.32.62-.33,1.03M243.17,55.94h-3.47c-.02.29,0,.57.08.84.07.27.21.48.4.65.19.17.44.26.75.26.36,0,.64-.07.83-.23.19-.16.31-.41.37-.77h.98c-.08.56-.32.98-.7,1.25s-.88.42-1.47.42c-.52,0-.95-.12-1.27-.34-.32-.22-.56-.53-.71-.91s-.22-.82-.22-1.31.08-.92.24-1.32c.16-.4.41-.71.75-.95.34-.24.77-.36,1.28-.36.73.02,1.28.24,1.63.66s.53.97.53,1.66v.46h-.01Z"/>
      <path class="cls-1" d="M246.05,55.79v2.44h-.93v-4.91h.93v.95h.02c.08-.34.25-.59.52-.76s.57-.26.92-.26c.11,0,.22,0,.32.01v.88c-.14-.04-.27-.06-.4-.05-.39.02-.68.09-.88.23-.2.14-.33.33-.4.58-.07.25-.1.54-.1.9"/>
      <rect class="cls-1" x="249.49" y="51.16" width=".93" height="7.07"/>
      <path class="cls-2" d="M253.79,52.16h-1.11v-1.01h1.11v1.01ZM253.71,58.22h-.93v-4.91h.93v4.91Z"/>
      <path class="cls-1" d="M256.95,53.3v.73h.02c.17-.31.39-.53.68-.67.28-.14.56-.2.81-.2.09,0,.24.01.44.04.2.03.4.1.62.2.22.11.4.27.56.5.15.23.24.53.24.92v3.4h-.93v-3.09c0-.41-.09-.72-.27-.93-.18-.22-.47-.32-.86-.32-.01-.01-.11,0-.31.03-.19.03-.39.14-.6.33-.05.04-.1.1-.16.19-.06.09-.11.22-.16.39-.05.18-.07.42-.07.74v2.67h-.93v-4.91h.91"/>
      <rect class="cls-1" x="40.12" y="33.27" width="5.37" height="12.9"/>
      <path class="cls-2" d="M54.65,40.88h.69c1.26,0,1.89.38,1.89,1.17,0,.95-.53,1.37-1.84,1.37h-.75v-2.54M49.62,46.17h7.56c3.38,0,5.2-1.48,5.2-3.7,0-1.38-.83-2.76-2.91-3.03v-.03c2.01-.45,2.55-1.55,2.55-2.79,0-2.16-1.42-3.34-4.35-3.34h-8.05v12.9h0ZM55.34,36.02c1.07,0,1.65.3,1.65,1.15,0,.74-.39,1.28-1.63,1.28h-.71v-2.43h.7Z"/>
      <path class="cls-2" d="M70.71,40.88h.69c1.26,0,1.89.38,1.89,1.17,0,.95-.53,1.37-1.84,1.37h-.75v-2.54M65.69,46.17h7.56c3.38,0,5.2-1.48,5.2-3.7,0-1.38-.83-2.76-2.91-3.03v-.03c2.01-.45,2.55-1.55,2.55-2.79,0-2.16-1.42-3.34-4.35-3.34h-8.05v12.9h0ZM71.41,36.02c1.07,0,1.65.3,1.65,1.15,0,.74-.39,1.28-1.63,1.28h-.71v-2.43h.7Z"/>
      <polygon class="cls-1" points="99.6 54.91 102.55 57.87 101.34 59.07 82.2 40 92.07 30.17 92.07 47.54 94.98 50.29 95.34 49.9 92.6 47.31 92.6 30.06 95.3 32.69 113.16 32.7 113.89 33.43 95.93 33.43 95.93 33.43 95.91 33.43 95.91 51.22 98.67 53.97 99.04 53.6 96.44 51 96.44 33.92 98.99 36.39 116.86 36.39 117.53 37.06 99.57 37.06 99.65 37.13 99.61 37.13 99.6 54.8 99.6 54.91"/>
      <polygon class="cls-1" points="120.46 40.03 102.92 57.5 100.13 54.69 100.14 37.6 102.72 40.03 120.46 40.03"/>
      <polygon class="cls-1" points="110.19 29.74 92.49 29.74 101.34 20.93 110.19 29.74"/>
    </g>
  </g>
</svg>